<svg width="24" height="24" viewBox="0 0 24 24" fill="none" xmlns="http://www.w3.org/2000/svg">
<path d="M21 10.6586V19C21 19.55 20.8042 20.0208 20.4125 20.4125C20.0208 20.8042 19.55 21 19 21H5C4.45 21 3.97917 20.8042 3.5875 20.4125C3.19583 20.0208 3 19.55 3 19V5C3 4.45 3.19583 3.97917 3.5875 3.5875C3.97917 3.19583 4.45 3 5 3H13.3414C13.1203 3.62556 13 4.29873 13 5L5 5V19H19V11C19.7013 11 20.3744 10.8797 21 10.6586Z" fill="#1B1D22"/>
<path d="M13.8027 8C14.2671 8.80277 14.9121 9.48797 15.6822 10H13C12.7167 10 12.4792 9.90417 12.2875 9.7125C12.0958 9.52083 12 9.28333 12 9C12 8.71667 12.0958 8.47917 12.2875 8.2875C12.4792 8.09583 12.7167 8 13 8H13.8027Z" fill="#1B1D22"/>
<path d="M16.7125 15.7125C16.5208 15.9042 16.2833 16 16 16H13C12.7167 16 12.4792 15.9042 12.2875 15.7125C12.0958 15.5208 12 15.2833 12 15C12 14.7167 12.0958 14.4792 12.2875 14.2875C12.4792 14.0958 12.7167 14 13 14H16C16.2833 14 16.5208 14.0958 16.7125 14.2875C16.9042 14.4792 17 14.7167 17 15C17 15.2833 16.9042 15.5208 16.7125 15.7125Z" fill="#1B1D22"/>
<path d="M10.4125 10.4125C10.0208 10.8042 9.55 11 9 11C8.45 11 7.97917 10.8042 7.5875 10.4125C7.19583 10.0208 7 9.55 7 9C7 8.45 7.19583 7.97917 7.5875 7.5875C7.97917 7.19583 8.45 7 9 7C9.55 7 10.0208 7.19583 10.4125 7.5875C10.8042 7.97917 11 8.45 11 9C11 9.55 10.8042 10.0208 10.4125 10.4125Z" fill="#1B1D22"/>
<path d="M10.4125 16.4125C10.0208 16.8042 9.55 17 9 17C8.45 17 7.97917 16.8042 7.5875 16.4125C7.19583 16.0208 7 15.55 7 15C7 14.45 7.19583 13.9792 7.5875 13.5875C7.97917 13.1958 8.45 13 9 13C9.55 13 10.0208 13.1958 10.4125 13.5875C10.8042 13.9792 11 14.45 11 15C11 15.55 10.8042 16.0208 10.4125 16.4125Z" fill="#1B1D22"/>
<path d="M22.7071 2.29289C23.0976 2.68342 23.0976 3.31658 22.7071 3.70711L18.7071 7.70711C18.3166 8.09763 17.6834 8.09763 17.2929 7.70711L15.2929 5.70711C14.9024 5.31658 14.9024 4.68342 15.2929 4.29289C15.6834 3.90237 16.3166 3.90237 16.7071 4.29289L18 5.58579L21.2929 2.29289C21.6834 1.90237 22.3166 1.90237 22.7071 2.29289Z" fill="#1B1D22"/>
</svg>
