<svg width="42" height="42" viewBox="0 0 42 42" fill="none" xmlns="http://www.w3.org/2000/svg">
<path d="M12.25 26.6437C10.675 26.6437 9.34063 26.0969 8.24688 25.0031C7.15313 23.9094 6.60625 22.575 6.60625 21C6.60625 19.425 7.15313 18.0906 8.24688 16.9969C9.34063 15.9031 10.675 15.3562 12.25 15.3562C13.825 15.3562 15.1594 15.9031 16.2531 16.9969C17.3469 18.0906 17.8938 19.425 17.8938 21C17.8938 22.575 17.3469 23.9094 16.2531 25.0031C15.1594 26.0969 13.825 26.6437 12.25 26.6437ZM12.25 31.5C14.6125 31.5 16.6906 30.8292 18.4844 29.4875C20.2781 28.1458 21.4521 26.3812 22.0063 24.1937H23.4063L25.5938 26.3812C25.7396 26.5271 25.8854 26.6292 26.0313 26.6875C26.1771 26.7458 26.3375 26.775 26.5125 26.775C26.6875 26.775 26.8479 26.7458 26.9938 26.6875C27.1396 26.6292 27.2854 26.5271 27.4313 26.3812L30.1875 23.625L32.9438 26.3812C33.0896 26.5271 33.2354 26.6292 33.3813 26.6875C33.5271 26.7458 33.6875 26.775 33.8625 26.775C34.0375 26.775 34.1979 26.7458 34.3438 26.6875C34.4896 26.6292 34.6354 26.5271 34.7813 26.3812L39.3313 21.8313C39.4771 21.6854 39.5792 21.5396 39.6375 21.3938C39.6958 21.2479 39.725 21.0875 39.725 20.9125C39.725 20.7375 39.6958 20.5771 39.6375 20.4312C39.5792 20.2854 39.4771 20.1396 39.3313 19.9937L37.45 18.1125C37.3042 17.9667 37.1583 17.8646 37.0125 17.8063C36.8667 17.7479 36.7063 17.7188 36.5313 17.7188H22.0063C21.3354 15.6188 20.1615 13.8906 18.4844 12.5344C16.8073 11.1781 14.7292 10.5 12.25 10.5C9.33333 10.5 6.85417 11.5208 4.8125 13.5625C2.77083 15.6042 1.75 18.0833 1.75 21C1.75 23.9167 2.77083 26.3958 4.8125 28.4375C6.85417 30.4792 9.33333 31.5 12.25 31.5Z" fill="#1B1D22"/>
</svg>
