<svg width="24" height="24" viewBox="0 0 24 24" fill="none" xmlns="http://www.w3.org/2000/svg">
<path d="M23.1059 13.4469L2.34497 23.8224C0.945941 24.5218 -0.509566 23.0216 0.174203 21.653C0.174203 21.653 2.74733 16.4567 3.45509 15.0956C4.16285 13.7345 4.97307 13.4989 12.497 12.5265C12.7754 12.4904 13.0034 12.2804 13.0034 11.9997C13.0034 11.7196 12.7754 11.5095 12.497 11.4735C4.97307 10.5011 4.16285 10.2655 3.45509 8.90437C2.74733 7.54377 0.174203 2.34697 0.174203 2.34697C-0.509566 0.978869 0.945941 -0.521793 2.34497 0.177516L23.1059 10.5536C24.298 11.1489 24.298 12.8511 23.1059 13.4469Z" fill="#1B1D22"/>
</svg>
