<svg width="24" height="24" viewBox="0 0 24 24" fill="none" xmlns="http://www.w3.org/2000/svg">
<path d="M9.00012 18C8.45012 18 7.97929 17.8042 7.58762 17.4125C7.19596 17.0208 7.00012 16.55 7.00012 16V4C7.00012 3.45 7.19596 2.97917 7.58762 2.5875C7.97929 2.19583 8.45012 2 9.00012 2H18.0001C18.5501 2 19.021 2.19583 19.4126 2.5875C19.8043 2.97917 20.0001 3.45 20.0001 4V16C20.0001 16.55 19.8043 17.0208 19.4126 17.4125C19.021 17.8042 18.5501 18 18.0001 18H9.00012ZM9.00012 16H18.0001V4H9.00012V16ZM5.00012 22C4.45012 22 3.97929 21.8042 3.58762 21.4125C3.19596 21.0208 3.00012 20.55 3.00012 20V7C3.00012 6.71667 3.09596 6.47917 3.28762 6.2875C3.47929 6.09583 3.71679 6 4.00012 6C4.28346 6 4.52096 6.09583 4.71262 6.2875C4.90429 6.47917 5.00012 6.71667 5.00012 7V20H15.0001C15.2835 20 15.521 20.0958 15.7126 20.2875C15.9043 20.4792 16.0001 20.7167 16.0001 21C16.0001 21.2833 15.9043 21.5208 15.7126 21.7125C15.521 21.9042 15.2835 22 15.0001 22H5.00012Z" fill="black"/>
</svg>
