<svg width="20" height="20" viewBox="0 0 20 20" fill="none" xmlns="http://www.w3.org/2000/svg">
<path d="M9.99984 18.3332C8.84706 18.3332 7.76373 18.1144 6.74984 17.6769C5.73595 17.2394 4.854 16.6457 4.104 15.8957C3.354 15.1457 2.76025 14.2637 2.32275 13.2499C1.88525 12.236 1.6665 11.1526 1.6665 9.99985C1.6665 8.84707 1.88525 7.76374 2.32275 6.74985C2.76025 5.73596 3.354 4.85402 4.104 4.10402C4.854 3.35402 5.73595 2.76027 6.74984 2.32277C7.76373 1.88527 8.84706 1.66652 9.99984 1.66652C11.1526 1.66652 12.2359 1.88527 13.2498 2.32277C14.2637 2.76027 15.1457 3.35402 15.8957 4.10402C16.6457 4.85402 17.2394 5.73596 17.6769 6.74985C18.1144 7.76374 18.3332 8.84707 18.3332 9.99985C18.3332 11.1526 18.1144 12.236 17.6769 13.2499C17.2394 14.2637 16.6457 15.1457 15.8957 15.8957C15.1457 16.6457 14.2637 17.2394 13.2498 17.6769C12.2359 18.1144 11.1526 18.3332 9.99984 18.3332ZM9.99984 16.6665C11.8609 16.6665 13.4373 16.0207 14.729 14.729C16.0207 13.4374 16.6665 11.861 16.6665 9.99985C16.6665 8.13874 16.0207 6.56235 14.729 5.27069C13.4373 3.97902 11.8609 3.33319 9.99984 3.33319C8.13873 3.33319 6.56234 3.97902 5.27067 5.27069C3.979 6.56235 3.33317 8.13874 3.33317 9.99985C3.33317 11.861 3.979 13.4374 5.27067 14.729C6.56234 16.0207 8.13873 16.6665 9.99984 16.6665Z" fill="#1B1D22"/>
</svg>
