<svg width="24" height="24" viewBox="0 0 24 24" fill="none" xmlns="http://www.w3.org/2000/svg">
<path d="M12.0001 17.5C13.2501 17.5 14.3126 17.0625 15.1876 16.1875C16.0626 15.3125 16.5001 14.25 16.5001 13C16.5001 11.75 16.0626 10.6875 15.1876 9.8125C14.3126 8.9375 13.2501 8.5 12.0001 8.5C10.7501 8.5 9.68762 8.9375 8.81262 9.8125C7.93762 10.6875 7.50012 11.75 7.50012 13C7.50012 14.25 7.93762 15.3125 8.81262 16.1875C9.68762 17.0625 10.7501 17.5 12.0001 17.5ZM12.0001 15.5C11.3001 15.5 10.7085 15.2583 10.2251 14.775C9.74179 14.2917 9.50012 13.7 9.50012 13C9.50012 12.3 9.74179 11.7083 10.2251 11.225C10.7085 10.7417 11.3001 10.5 12.0001 10.5C12.7001 10.5 13.2918 10.7417 13.7751 11.225C14.2585 11.7083 14.5001 12.3 14.5001 13C14.5001 13.7 14.2585 14.2917 13.7751 14.775C13.2918 15.2583 12.7001 15.5 12.0001 15.5ZM4.00012 21C3.45012 21 2.97929 20.8042 2.58762 20.4125C2.19596 20.0208 2.00012 19.55 2.00012 19V7C2.00012 6.45 2.19596 5.97917 2.58762 5.5875C2.97929 5.19583 3.45012 5 4.00012 5H7.15012L8.40012 3.65C8.58346 3.45 8.80429 3.29167 9.06262 3.175C9.32096 3.05833 9.59179 3 9.87512 3H14.1251C14.4085 3 14.6793 3.05833 14.9376 3.175C15.196 3.29167 15.4168 3.45 15.6001 3.65L16.8501 5H20.0001C20.5501 5 21.021 5.19583 21.4126 5.5875C21.8043 5.97917 22.0001 6.45 22.0001 7V19C22.0001 19.55 21.8043 20.0208 21.4126 20.4125C21.021 20.8042 20.5501 21 20.0001 21H4.00012ZM4.00012 19H20.0001V7H15.9501L14.1251 5H9.87512L8.05012 7H4.00012V19Z" fill="black"/>
</svg>
