<svg width="20" height="20" viewBox="0 0 20 20" fill="none" xmlns="http://www.w3.org/2000/svg">
<path d="M7.33341 15.8327C6.87508 15.8327 6.48272 15.6695 6.15633 15.3431C5.82994 15.0167 5.66675 14.6243 5.66675 14.166V5.83268C5.66675 5.37435 5.82994 4.98199 6.15633 4.6556C6.48272 4.32921 6.87508 4.16602 7.33341 4.16602H10.2709C11.1737 4.16602 12.007 4.44379 12.7709 4.99935C13.5348 5.5549 13.9167 6.32574 13.9167 7.31185C13.9167 8.02018 13.757 8.56532 13.4376 8.94727C13.1181 9.32921 12.8195 9.60352 12.5417 9.77018C12.889 9.92296 13.2744 10.2077 13.698 10.6243C14.1216 11.041 14.3334 11.666 14.3334 12.4993C14.3334 13.7355 13.882 14.6 12.9792 15.0931C12.0765 15.5862 11.2292 15.8327 10.4376 15.8327H7.33341ZM8.18758 13.4993H10.3542C11.0209 13.4993 11.4272 13.3292 11.573 12.9889C11.7188 12.6487 11.7917 12.4021 11.7917 12.2493C11.7917 12.0966 11.7188 11.85 11.573 11.5098C11.4272 11.1695 11.0001 10.9993 10.2917 10.9993H8.18758V13.4993ZM8.18758 8.74935H10.1251C10.5834 8.74935 10.9167 8.63129 11.1251 8.39518C11.3334 8.15907 11.4376 7.89518 11.4376 7.60352C11.4376 7.27018 11.3195 6.99935 11.0834 6.79102C10.8473 6.58268 10.5417 6.47852 10.1667 6.47852H8.18758V8.74935Z" fill="#656D77"/>
</svg>
