<svg width="24" height="24" viewBox="0 0 24 24" fill="none" xmlns="http://www.w3.org/2000/svg">
<path d="M12 22C10.6167 22 9.31667 21.7375 8.1 21.2125C6.88333 20.6875 5.825 19.975 4.925 19.075C4.025 18.175 3.3125 17.1167 2.7875 15.9C2.2625 14.6833 2 13.3833 2 12C2 10.6167 2.2625 9.31667 2.7875 8.1C3.3125 6.88333 4.025 5.825 4.925 4.925C5.825 4.025 6.88333 3.3125 8.1 2.7875C9.31667 2.2625 10.6167 2 12 2C12.7167 2 13.4083 2.07083 14.075 2.2125C14.7417 2.35417 15.3833 2.55833 16 2.825V5.075C15.4167 4.74167 14.7875 4.47917 14.1125 4.2875C13.4375 4.09583 12.7333 4 12 4C9.78333 4 7.89583 4.77917 6.3375 6.3375C4.77917 7.89583 4 9.78333 4 12C4 14.2167 4.77917 16.1042 6.3375 17.6625C7.89583 19.2208 9.78333 20 12 20C14.2167 20 16.1042 19.2208 17.6625 17.6625C19.2208 16.1042 20 14.2167 20 12C20 11.4667 19.9458 10.95 19.8375 10.45C19.7292 9.95 19.5833 9.46667 19.4 9H21.55C21.7 9.48333 21.8125 9.97083 21.8875 10.4625C21.9625 10.9542 22 11.4667 22 12C22 13.3833 21.7375 14.6833 21.2125 15.9C20.6875 17.1167 19.975 18.175 19.075 19.075C18.175 19.975 17.1167 20.6875 15.9 21.2125C14.6833 21.7375 13.3833 22 12 22ZM20 5H19C18.7167 5 18.4792 4.90417 18.2875 4.7125C18.0958 4.52083 18 4.28333 18 4C18 3.71667 18.0958 3.47917 18.2875 3.2875C18.4792 3.09583 18.7167 3 19 3H20V2C20 1.71667 20.0958 1.47917 20.2875 1.2875C20.4792 1.09583 20.7167 1 21 1C21.2833 1 21.5208 1.09583 21.7125 1.2875C21.9042 1.47917 22 1.71667 22 2V3H23C23.2833 3 23.5208 3.09583 23.7125 3.2875C23.9042 3.47917 24 3.71667 24 4C24 4.28333 23.9042 4.52083 23.7125 4.7125C23.5208 4.90417 23.2833 5 23 5H22V6C22 6.28333 21.9042 6.52083 21.7125 6.7125C21.5208 6.90417 21.2833 7 21 7C20.7167 7 20.4792 6.90417 20.2875 6.7125C20.0958 6.52083 20 6.28333 20 6V5ZM15.5 11C15.9167 11 16.2708 10.8542 16.5625 10.5625C16.8542 10.2708 17 9.91667 17 9.5C17 9.08333 16.8542 8.72917 16.5625 8.4375C16.2708 8.14583 15.9167 8 15.5 8C15.0833 8 14.7292 8.14583 14.4375 8.4375C14.1458 8.72917 14 9.08333 14 9.5C14 9.91667 14.1458 10.2708 14.4375 10.5625C14.7292 10.8542 15.0833 11 15.5 11ZM8.5 11C8.91667 11 9.27083 10.8542 9.5625 10.5625C9.85417 10.2708 10 9.91667 10 9.5C10 9.08333 9.85417 8.72917 9.5625 8.4375C9.27083 8.14583 8.91667 8 8.5 8C8.08333 8 7.72917 8.14583 7.4375 8.4375C7.14583 8.72917 7 9.08333 7 9.5C7 9.91667 7.14583 10.2708 7.4375 10.5625C7.72917 10.8542 8.08333 11 8.5 11ZM12 17.5C12.9667 17.5 13.8583 17.2667 14.675 16.8C15.4917 16.3333 16.15 15.7 16.65 14.9C16.75 14.7 16.7417 14.5 16.625 14.3C16.5083 14.1 16.3333 14 16.1 14H7.9C7.66667 14 7.49167 14.1 7.375 14.3C7.25833 14.5 7.25 14.7 7.35 14.9C7.85 15.7 8.5125 16.3333 9.3375 16.8C10.1625 17.2667 11.05 17.5 12 17.5Z" fill="black"/>
</svg>
