<svg width="24" height="24" viewBox="0 0 24 24" fill="none" xmlns="http://www.w3.org/2000/svg">
<path d="M4 19C3.71667 19 3.47917 18.9042 3.2875 18.7125C3.09583 18.5209 3 18.2834 3 18V15C3 13.6167 3.4875 12.4375 4.4625 11.4625C5.4375 10.4875 6.61667 10 8 10H17.2L14.275 7.07505C14.0917 6.89172 14 6.66672 14 6.40005C14 6.13338 14.1 5.90005 14.3 5.70005C14.4833 5.51672 14.7167 5.42505 15 5.42505C15.2833 5.42505 15.5167 5.51672 15.7 5.70005L20.3 10.3C20.4 10.4 20.4708 10.5084 20.5125 10.625C20.5542 10.7417 20.575 10.8667 20.575 11C20.575 11.1334 20.5542 11.2584 20.5125 11.375C20.4708 11.4917 20.4 11.6 20.3 11.7L15.675 16.325C15.4917 16.5084 15.2667 16.6 15 16.6C14.7333 16.6 14.5 16.5 14.3 16.3C14.1167 16.1167 14.025 15.8834 14.025 15.6C14.025 15.3167 14.1167 15.0834 14.3 14.9L17.2 12H8C7.16667 12 6.45833 12.2917 5.875 12.875C5.29167 13.4584 5 14.1667 5 15V18C5 18.2834 4.90417 18.5209 4.7125 18.7125C4.52083 18.9042 4.28333 19 4 19Z" fill="black"/>
</svg>
