<svg width="20" height="20" viewBox="0 0 20 20" fill="none" xmlns="http://www.w3.org/2000/svg">
<g id="Link">
<path id="Glyph" d="M10 15.8926C9.18489 16.7077 8.2028 17.1153 7.05375 17.1153C5.9047 17.1153 4.92261 16.7077 4.10747 15.8926C3.29233 15.0774 2.88477 14.0954 2.88477 12.9463C2.88477 11.7973 3.29233 10.8152 4.10747 10L5.87524 8.23226C6.04219 8.0653 6.23861 7.98183 6.46449 7.98183C6.69038 7.98183 6.88679 8.0653 7.05375 8.23226C7.22071 8.39922 7.30418 8.59563 7.30418 8.82152C7.30418 9.0474 7.22071 9.24382 7.05375 9.41077L5.28598 11.1785C4.79494 11.6696 4.54941 12.2588 4.54941 12.9463C4.54941 13.6338 4.79494 14.223 5.28598 14.7141C5.77703 15.2051 6.36628 15.4506 7.05375 15.4506C7.74121 15.4506 8.33047 15.2051 8.82152 14.7141L10.5893 12.9463C10.7562 12.7794 10.9527 12.6959 11.1785 12.6959C11.4044 12.6959 11.6008 12.7794 11.7678 12.9463C11.9347 13.1133 12.0182 13.3097 12.0182 13.5356C12.0182 13.7614 11.9347 13.9579 11.7678 14.1248L10 15.8926ZM8.82152 12.357C8.65456 12.524 8.45814 12.6075 8.23226 12.6075C8.00638 12.6075 7.80996 12.524 7.643 12.357C7.47605 12.1901 7.39257 11.9937 7.39257 11.7678C7.39257 11.5419 7.47605 11.3455 7.643 11.1785L11.1785 7.643C11.3455 7.47605 11.5419 7.39257 11.7678 7.39257C11.9937 7.39257 12.1901 7.47605 12.357 7.643C12.524 7.80996 12.6075 8.00638 12.6075 8.23226C12.6075 8.45814 12.524 8.65456 12.357 8.82152L8.82152 12.357ZM14.1248 11.7678C13.9579 11.9347 13.7614 12.0182 13.5356 12.0182C13.3097 12.0182 13.1133 11.9347 12.9463 11.7678C12.7793 11.6008 12.6959 11.4044 12.6959 11.1785C12.6959 10.9527 12.7793 10.7562 12.9463 10.5893L14.7141 8.82152C15.2051 8.33047 15.4506 7.74121 15.4506 7.05375C15.4506 6.36628 15.2051 5.77703 14.7141 5.28598C14.223 4.79494 13.6338 4.54941 12.9463 4.54941C12.2588 4.54941 11.6696 4.79494 11.1785 5.28598L9.41077 7.05375C9.24382 7.22071 9.0474 7.30418 8.82152 7.30418C8.59563 7.30418 8.39922 7.22071 8.23226 7.05375C8.0653 6.88679 7.98183 6.69038 7.98183 6.46449C7.98183 6.23861 8.0653 6.04219 8.23226 5.87524L10 4.10747C10.8152 3.29233 11.7973 2.88477 12.9463 2.88477C14.0954 2.88477 15.0774 3.29233 15.8926 4.10747C16.7077 4.92261 17.1153 5.9047 17.1153 7.05375C17.1153 8.2028 16.7077 9.18489 15.8926 10L14.1248 11.7678Z" fill="#656D77"/>
</g>
</svg>
