<svg width="24" height="24" viewBox="0 0 24 24" fill="none" xmlns="http://www.w3.org/2000/svg">
<path d="M12 19.0711C11.0218 20.0493 9.84331 20.5384 8.46445 20.5384C7.08559 20.5384 5.90708 20.0493 4.92892 19.0711C3.95075 18.0929 3.46167 16.9144 3.46167 15.5356C3.46167 14.1567 3.95075 12.9782 4.92892 12L7.05024 9.87872C7.25058 9.67837 7.48629 9.5782 7.75734 9.5782C8.0284 9.5782 8.2641 9.67837 8.46445 9.87872C8.6648 10.0791 8.76497 10.3148 8.76497 10.5858C8.76497 10.8569 8.6648 11.0926 8.46445 11.2929L6.34313 13.4143C5.75387 14.0035 5.45925 14.7106 5.45925 15.5356C5.45925 16.3605 5.75387 17.0676 6.34313 17.6569C6.93239 18.2461 7.63949 18.5408 8.46445 18.5408C9.28941 18.5408 9.99651 18.2461 10.5858 17.6569L12.7071 15.5356C12.9074 15.3352 13.1431 15.2351 13.4142 15.2351C13.6853 15.2351 13.921 15.3352 14.1213 15.5356C14.3217 15.7359 14.4218 15.9716 14.4218 16.2427C14.4218 16.5137 14.3217 16.7494 14.1213 16.9498L12 19.0711ZM10.5858 14.8285C10.3854 15.0288 10.1497 15.129 9.87866 15.129C9.60761 15.129 9.3719 15.0288 9.17156 14.8285C8.97121 14.6281 8.87104 14.3924 8.87104 14.1214C8.87104 13.8503 8.97121 13.6146 9.17156 13.4143L13.4142 9.17161C13.6145 8.97126 13.8502 8.87109 14.1213 8.87109C14.3924 8.87109 14.6281 8.97126 14.8284 9.17161C15.0288 9.37196 15.1289 9.60766 15.1289 9.87872C15.1289 10.1498 15.0288 10.3855 14.8284 10.5858L10.5858 14.8285ZM16.9497 14.1214C16.7494 14.3217 16.5137 14.4219 16.2426 14.4219C15.9716 14.4219 15.7359 14.3217 15.5355 14.1214C15.3352 13.921 15.235 13.6853 15.235 13.4143C15.235 13.1432 15.3352 12.9075 15.5355 12.7071L17.6568 10.5858C18.2461 9.99657 18.5407 9.28946 18.5407 8.4645C18.5407 7.63955 18.2461 6.93244 17.6568 6.34318C17.0676 5.75393 16.3605 5.4593 15.5355 5.4593C14.7106 5.4593 14.0035 5.75393 13.4142 6.34318L11.2929 8.4645C11.0925 8.66485 10.8568 8.76502 10.5858 8.76502C10.3147 8.76502 10.079 8.66485 9.87866 8.4645C9.67832 8.26416 9.57814 8.02845 9.57814 7.7574C9.57814 7.48634 9.67832 7.25064 9.87866 7.05029L12 4.92897C12.9781 3.95081 14.1567 3.46172 15.5355 3.46172C16.9144 3.46172 18.0929 3.95081 19.0711 4.92897C20.0492 5.90713 20.5383 7.08565 20.5383 8.4645C20.5383 9.84336 20.0492 11.0219 19.0711 12L16.9497 14.1214Z" fill="#656D77"/>
</svg>
