<svg width="110" height="110" viewBox="0 0 110 110" fill="none" xmlns="http://www.w3.org/2000/svg">
<path fill-rule="evenodd" clip-rule="evenodd" d="M55 110C85.3757 110 110 85.3757 110 55C110 24.6243 85.3757 0 55 0C24.6243 0 0 24.6243 0 55C0 85.3757 24.6243 110 55 110Z" fill="#0DBD8B"/>
<path fill-rule="evenodd" clip-rule="evenodd" d="M44.9439 25.627C44.9439 23.4069 46.7474 21.6072 48.9721 21.6072C64.0505 21.6072 76.2739 33.8053 76.2739 48.8523C76.2739 51.0724 74.4705 52.8721 72.2458 52.8721C70.0211 52.8721 68.2176 51.0724 68.2176 48.8523C68.2176 38.2454 59.6011 29.6468 48.9721 29.6468C46.7474 29.6468 44.9439 27.8471 44.9439 25.627Z" fill="white"/>
<path fill-rule="evenodd" clip-rule="evenodd" d="M84.3646 44.8325C86.5893 44.8325 88.3928 46.6322 88.3928 48.8523C88.3928 63.8994 76.1693 76.0975 61.091 76.0975C58.8663 76.0975 57.0628 74.2977 57.0628 72.0777C57.0628 69.8576 58.8663 68.0579 61.091 68.0579C71.7199 68.0579 80.3364 59.4592 80.3364 48.8523C80.3364 46.6322 82.1399 44.8325 84.3646 44.8325Z" fill="white"/>
<path fill-rule="evenodd" clip-rule="evenodd" d="M65.1188 84.3729C65.1188 86.593 63.3153 88.3927 61.0906 88.3927C46.0122 88.3927 33.7888 76.1946 33.7888 61.1476C33.7888 58.9275 35.5923 57.1278 37.817 57.1278C40.0416 57.1278 41.8451 58.9275 41.8451 61.1476C41.8451 71.7545 50.4616 80.3531 61.0906 80.3531C63.3153 80.3531 65.1188 82.1528 65.1188 84.3729Z" fill="white"/>
<path fill-rule="evenodd" clip-rule="evenodd" d="M25.6348 65.1674C23.4101 65.1674 21.6066 63.3677 21.6066 61.1476C21.6066 46.1005 33.8301 33.9024 48.9085 33.9024C51.1332 33.9024 52.9366 35.7022 52.9366 37.9222C52.9366 40.1423 51.1332 41.942 48.9085 41.942C38.2795 41.942 29.663 50.5407 29.663 61.1476C29.663 63.3677 27.8595 65.1674 25.6348 65.1674Z" fill="white"/>
</svg>
