<svg width="20" height="20" viewBox="0 0 20 20" fill="none" xmlns="http://www.w3.org/2000/svg">
<g id="_Numbered list">
<path id="Vector" d="M3.125 18.3327C2.94444 18.3327 2.79514 18.2737 2.67708 18.1556C2.55903 18.0375 2.5 17.8882 2.5 17.7077C2.5 17.5271 2.55903 17.3778 2.67708 17.2598C2.79514 17.1417 2.94444 17.0827 3.125 17.0827H4.58333V16.4577H3.95833C3.77778 16.4577 3.62847 16.3987 3.51042 16.2806C3.39236 16.1625 3.33333 16.0132 3.33333 15.8327C3.33333 15.6521 3.39236 15.5028 3.51042 15.3848C3.62847 15.2667 3.77778 15.2077 3.95833 15.2077H4.58333V14.5827H3.125C2.94444 14.5827 2.79514 14.5237 2.67708 14.4056C2.55903 14.2875 2.5 14.1382 2.5 13.9577C2.5 13.7771 2.55903 13.6278 2.67708 13.5098C2.79514 13.3917 2.94444 13.3327 3.125 13.3327H5C5.23611 13.3327 5.43403 13.4125 5.59375 13.5723C5.75347 13.732 5.83333 13.9299 5.83333 14.166V14.9993C5.83333 15.2355 5.75347 15.4334 5.59375 15.5931C5.43403 15.7528 5.23611 15.8327 5 15.8327C5.23611 15.8327 5.43403 15.9125 5.59375 16.0723C5.75347 16.232 5.83333 16.4299 5.83333 16.666V17.4993C5.83333 17.7355 5.75347 17.9334 5.59375 18.0931C5.43403 18.2528 5.23611 18.3327 5 18.3327H3.125ZM3.125 12.4993C2.94444 12.4993 2.79514 12.4403 2.67708 12.3223C2.55903 12.2042 2.5 12.0549 2.5 11.8743V10.2077C2.5 9.97157 2.57986 9.77365 2.73958 9.61393C2.89931 9.45421 3.09722 9.37435 3.33333 9.37435H4.58333V8.74935H3.125C2.94444 8.74935 2.79514 8.69032 2.67708 8.57227C2.55903 8.45421 2.5 8.3049 2.5 8.12435C2.5 7.94379 2.55903 7.79449 2.67708 7.67643C2.79514 7.55838 2.94444 7.49935 3.125 7.49935H5C5.23611 7.49935 5.43403 7.57921 5.59375 7.73893C5.75347 7.89865 5.83333 8.09657 5.83333 8.33268V9.79101C5.83333 10.0271 5.75347 10.225 5.59375 10.3848C5.43403 10.5445 5.23611 10.6243 5 10.6243H3.75V11.2493H5.20833C5.38889 11.2493 5.53819 11.3084 5.65625 11.4264C5.77431 11.5445 5.83333 11.6938 5.83333 11.8743C5.83333 12.0549 5.77431 12.2042 5.65625 12.3223C5.53819 12.4403 5.38889 12.4993 5.20833 12.4993H3.125ZM4.375 6.66602C4.19444 6.66602 4.04514 6.60699 3.92708 6.48893C3.80903 6.37088 3.75 6.22157 3.75 6.04102V2.91602H3.125C2.94444 2.91602 2.79514 2.85699 2.67708 2.73893C2.55903 2.62088 2.5 2.47157 2.5 2.29102C2.5 2.11046 2.55903 1.96115 2.67708 1.8431C2.79514 1.72504 2.94444 1.66602 3.125 1.66602H4.375C4.55556 1.66602 4.70486 1.72504 4.82292 1.8431C4.94097 1.96115 5 2.11046 5 2.29102V6.04102C5 6.22157 4.94097 6.37088 4.82292 6.48893C4.70486 6.60699 4.55556 6.66602 4.375 6.66602ZM8.33333 15.8327C8.09722 15.8327 7.89931 15.7528 7.73958 15.5931C7.57986 15.4334 7.5 15.2355 7.5 14.9993C7.5 14.7632 7.57986 14.5653 7.73958 14.4056C7.89931 14.2459 8.09722 14.166 8.33333 14.166H16.6667C16.9028 14.166 17.1007 14.2459 17.2604 14.4056C17.4201 14.5653 17.5 14.7632 17.5 14.9993C17.5 15.2355 17.4201 15.4334 17.2604 15.5931C17.1007 15.7528 16.9028 15.8327 16.6667 15.8327H8.33333ZM8.33333 10.8327C8.09722 10.8327 7.89931 10.7528 7.73958 10.5931C7.57986 10.4334 7.5 10.2355 7.5 9.99935C7.5 9.76324 7.57986 9.56532 7.73958 9.4056C7.89931 9.24588 8.09722 9.16602 8.33333 9.16602H16.6667C16.9028 9.16602 17.1007 9.24588 17.2604 9.4056C17.4201 9.56532 17.5 9.76324 17.5 9.99935C17.5 10.2355 17.4201 10.4334 17.2604 10.5931C17.1007 10.7528 16.9028 10.8327 16.6667 10.8327H8.33333ZM8.33333 5.83268C8.09722 5.83268 7.89931 5.75282 7.73958 5.5931C7.57986 5.43338 7.5 5.23546 7.5 4.99935C7.5 4.76324 7.57986 4.56532 7.73958 4.4056C7.89931 4.24588 8.09722 4.16602 8.33333 4.16602H16.6667C16.9028 4.16602 17.1007 4.24588 17.2604 4.4056C17.4201 4.56532 17.5 4.76324 17.5 4.99935C17.5 5.23546 17.4201 5.43338 17.2604 5.5931C17.1007 5.75282 16.9028 5.83268 16.6667 5.83268H8.33333Z" fill="#656D77"/>
</g>
</svg>
