<svg width="30" height="30" viewBox="0 0 30 30" fill="none" xmlns="http://www.w3.org/2000/svg">
<path fill-rule="evenodd" clip-rule="evenodd" d="M0 15C0 23.2843 6.71573 30 15 30C23.2843 30 30 23.2843 30 15C30 6.71573 23.2843 0 15 0C6.71573 0 0 6.71573 0 15ZM16 21V16H21C21.2833 16 21.5208 15.9042 21.7125 15.7125C21.9042 15.5208 22 15.2833 22 15C22 14.7167 21.9042 14.4792 21.7125 14.2875C21.5208 14.0958 21.2833 14 21 14H16V9C16 8.71667 15.9042 8.47917 15.7125 8.2875C15.5208 8.09583 15.2833 8 15 8C14.7167 8 14.4792 8.09583 14.2875 8.2875C14.0958 8.47917 14 8.71667 14 9L14 14L9 14C8.71667 14 8.47917 14.0958 8.2875 14.2875C8.09583 14.4792 8 14.7167 8 15C8 15.2833 8.09583 15.5208 8.2875 15.7125C8.47917 15.9042 8.71667 16 9 16H14V21C14 21.2833 14.0958 21.5208 14.2875 21.7125C14.4792 21.9042 14.7167 22 15 22C15.2833 22 15.5208 21.9042 15.7125 21.7125C15.9042 21.5208 16 21.2833 16 21Z" fill="#1B1D22"/>
</svg>
