<svg width="24" height="24" viewBox="0 0 24 24" fill="none" xmlns="http://www.w3.org/2000/svg">
<path d="M6 19C5.71667 19 5.47917 18.9042 5.2875 18.7125C5.09583 18.5208 5 18.2833 5 18C5 17.7167 5.09583 17.4792 5.2875 17.2875C5.47917 17.0958 5.71667 17 6 17H18C18.2833 17 18.5208 17.0958 18.7125 17.2875C18.9042 17.4792 19 17.7167 19 18C19 18.2833 18.9042 18.5208 18.7125 18.7125C18.5208 18.9042 18.2833 19 18 19H6ZM7.35 13.8L10.775 4.6C10.8417 4.41667 10.9542 4.27083 11.1125 4.1625C11.2708 4.05417 11.45 4 11.65 4H12.35C12.55 4 12.7292 4.05417 12.8875 4.1625C13.0458 4.27083 13.1583 4.41667 13.225 4.6L16.65 13.825C16.75 14.1083 16.7167 14.375 16.55 14.625C16.3833 14.875 16.15 15 15.85 15C15.6667 15 15.4958 14.9458 15.3375 14.8375C15.1792 14.7292 15.0667 14.5833 15 14.4L14.25 12.2H9.8L9 14.425C8.93333 14.6083 8.825 14.75 8.675 14.85C8.525 14.95 8.35833 15 8.175 15C7.85833 15 7.6125 14.8708 7.4375 14.6125C7.2625 14.3542 7.23333 14.0833 7.35 13.8ZM10.35 10.6H13.65L12.05 6.05H11.95L10.35 10.6Z" fill="black"/>
</svg>
