<svg width="24" height="24" viewBox="0 0 24 24" fill="none" xmlns="http://www.w3.org/2000/svg">
<path d="M10 12C8.9 12 7.95833 11.6083 7.175 10.825C6.39167 10.0417 6 9.1 6 8C6 6.9 6.39167 5.95833 7.175 5.175C7.95833 4.39167 8.9 4 10 4C11.1 4 12.0417 4.39167 12.825 5.175C13.6083 5.95833 14 6.9 14 8C14 9.1 13.6083 10.0417 12.825 10.825C12.0417 11.6083 11.1 12 10 12ZM2 18V17.2C2 16.6333 2.14583 16.1125 2.4375 15.6375C2.72917 15.1625 3.11667 14.8 3.6 14.55C4.63333 14.0333 5.68333 13.6458 6.75 13.3875C7.81667 13.1292 8.9 13 10 13C11.1 13 12.1833 13.1292 13.25 13.3875C14.3167 13.6458 15.3667 14.0333 16.4 14.55C16.8833 14.8 17.2708 15.1625 17.5625 15.6375C17.8542 16.1125 18 16.6333 18 17.2V18C18 18.55 17.8042 19.0208 17.4125 19.4125C17.0208 19.8042 16.55 20 16 20H4C3.45 20 2.97917 19.8042 2.5875 19.4125C2.19583 19.0208 2 18.55 2 18ZM4 18H16V17.2C16 17.0167 15.9542 16.85 15.8625 16.7C15.7708 16.55 15.65 16.4333 15.5 16.35C14.6 15.9 13.6917 15.5625 12.775 15.3375C11.8583 15.1125 10.9333 15 10 15C9.06667 15 8.14167 15.1125 7.225 15.3375C6.30833 15.5625 5.4 15.9 4.5 16.35C4.35 16.4333 4.22917 16.55 4.1375 16.7C4.04583 16.85 4 17.0167 4 17.2V18ZM10 10C10.55 10 11.0208 9.80417 11.4125 9.4125C11.8042 9.02083 12 8.55 12 8C12 7.45 11.8042 6.97917 11.4125 6.5875C11.0208 6.19583 10.55 6 10 6C9.45 6 8.97917 6.19583 8.5875 6.5875C8.19583 6.97917 8 7.45 8 8C8 8.55 8.19583 9.02083 8.5875 9.4125C8.97917 9.80417 9.45 10 10 10Z" fill="#1B1D22"/>
<path d="M17 11H19V13C19 13.2833 19.0958 13.5208 19.2875 13.7125C19.4792 13.9042 19.7167 14 20 14C20.2833 14 20.5208 13.9042 20.7125 13.7125C20.9042 13.5208 21 13.2833 21 13V11H23C23.2833 11 23.5208 10.9042 23.7125 10.7125C23.9042 10.5208 24 10.2833 24 10C24 9.71667 23.9042 9.47917 23.7125 9.2875C23.5208 9.09583 23.2833 9 23 9H21V7C21 6.71667 20.9042 6.47917 20.7125 6.2875C20.5208 6.09583 20.2833 6 20 6C19.7167 6 19.4792 6.09583 19.2875 6.2875C19.0958 6.47917 19 6.71667 19 7V9H17C16.7167 9 16.4792 9.09583 16.2875 9.2875C16.0958 9.47917 16 9.71667 16 10C16 10.2833 16.0958 10.5208 16.2875 10.7125C16.4792 10.9042 16.7167 11 17 11Z" fill="#1B1D22"/>
</svg>
