<svg width="24" height="24" viewBox="0 0 24 24" fill="none" xmlns="http://www.w3.org/2000/svg">
<path d="M5 21.025C4.45 21.025 3.97917 20.8292 3.5875 20.4375C3.19583 20.0458 3 19.575 3 19.025V5.025C3 4.475 3.19583 4.00417 3.5875 3.6125C3.97917 3.22083 4.45 3.025 5 3.025H13.925L11.925 5.025H5V19.025H19V12.075L21 10.075V19.025C21 19.575 20.8042 20.0458 20.4125 20.4375C20.0208 20.8292 19.55 21.025 19 21.025H5ZM16.175 3.6L17.6 5L11 11.6V13.025H12.4L19.025 6.4L20.45 7.8L13.825 14.425C13.6417 14.6083 13.4292 14.7542 13.1875 14.8625C12.9458 14.9708 12.6917 15.025 12.425 15.025H10C9.71667 15.025 9.47917 14.9292 9.2875 14.7375C9.09583 14.5458 9 14.3083 9 14.025V11.6C9 11.3333 9.05 11.0792 9.15 10.8375C9.25 10.5958 9.39167 10.3833 9.575 10.2L16.175 3.6ZM20.45 7.8L16.175 3.6L18.675 1.1C19.075 0.7 19.5542 0.5 20.1125 0.5C20.6708 0.5 21.1417 0.7 21.525 1.1L22.925 2.525C23.3083 2.90833 23.5 3.375 23.5 3.925C23.5 4.475 23.3083 4.94167 22.925 5.325L20.45 7.8Z" fill="#1B1D22"/>
</svg>
