<svg width="24" height="24" viewBox="0 0 24 24" fill="none" xmlns="http://www.w3.org/2000/svg">
<path d="M12.0001 19.35C14.0335 17.4833 15.5418 15.7875 16.5251 14.2625C17.5085 12.7375 18.0001 11.3833 18.0001 10.2C18.0001 8.38333 17.421 6.89583 16.2626 5.7375C15.1043 4.57917 13.6835 4 12.0001 4C10.3168 4 8.89596 4.57917 7.73762 5.7375C6.57929 6.89583 6.00012 8.38333 6.00012 10.2C6.00012 11.3833 6.49179 12.7375 7.47512 14.2625C8.45846 15.7875 9.96679 17.4833 12.0001 19.35ZM12.0001 21.325C11.7668 21.325 11.5335 21.2833 11.3001 21.2C11.0668 21.1167 10.8585 20.9917 10.6751 20.825C9.59179 19.825 8.63346 18.85 7.80012 17.9C6.96679 16.95 6.27096 16.0292 5.71262 15.1375C5.15429 14.2458 4.72929 13.3875 4.43762 12.5625C4.14596 11.7375 4.00012 10.95 4.00012 10.2C4.00012 7.7 4.80429 5.70833 6.41262 4.225C8.02096 2.74167 9.88346 2 12.0001 2C14.1168 2 15.9793 2.74167 17.5876 4.225C19.196 5.70833 20.0001 7.7 20.0001 10.2C20.0001 10.95 19.8543 11.7375 19.5626 12.5625C19.271 13.3875 18.846 14.2458 18.2876 15.1375C17.7293 16.0292 17.0335 16.95 16.2001 17.9C15.3668 18.85 14.4085 19.825 13.3251 20.825C13.1418 20.9917 12.9335 21.1167 12.7001 21.2C12.4668 21.2833 12.2335 21.325 12.0001 21.325ZM12.0001 12C12.5501 12 13.021 11.8042 13.4126 11.4125C13.8043 11.0208 14.0001 10.55 14.0001 10C14.0001 9.45 13.8043 8.97917 13.4126 8.5875C13.021 8.19583 12.5501 8 12.0001 8C11.4501 8 10.9793 8.19583 10.5876 8.5875C10.196 8.97917 10.0001 9.45 10.0001 10C10.0001 10.55 10.196 11.0208 10.5876 11.4125C10.9793 11.8042 11.4501 12 12.0001 12Z" fill="black"/>
</svg>
