<svg width="24" height="24" viewBox="0 0 24 24" fill="none" xmlns="http://www.w3.org/2000/svg">
<path d="M10.9998 21.9498V20.9498C8.91647 20.7165 7.12897 19.854 5.6373 18.3623C4.14564 16.8706 3.28314 15.0831 3.0498 12.9998H2.0498C1.76647 12.9998 1.52897 12.904 1.3373 12.7123C1.14564 12.5206 1.0498 12.2831 1.0498 11.9998C1.0498 11.7165 1.14564 11.479 1.3373 11.2873C1.52897 11.0956 1.76647 10.9998 2.0498 10.9998H3.0498C3.28314 8.91647 4.14564 7.12897 5.6373 5.6373C7.12897 4.14564 8.91647 3.28314 10.9998 3.0498V2.0498C10.9998 1.76647 11.0956 1.52897 11.2873 1.3373C11.479 1.14564 11.7165 1.0498 11.9998 1.0498C12.2831 1.0498 12.5206 1.14564 12.7123 1.3373C12.904 1.52897 12.9998 1.76647 12.9998 2.0498V3.0498C15.0831 3.28314 16.8706 4.14564 18.3623 5.6373C19.854 7.12897 20.7165 8.91647 20.9498 10.9998H21.9498C22.2331 10.9998 22.4706 11.0956 22.6623 11.2873C22.854 11.479 22.9498 11.7165 22.9498 11.9998C22.9498 12.2831 22.854 12.5206 22.6623 12.7123C22.4706 12.904 22.2331 12.9998 21.9498 12.9998H20.9498C20.7165 15.0831 19.854 16.8706 18.3623 18.3623C16.8706 19.854 15.0831 20.7165 12.9998 20.9498V21.9498C12.9998 22.2331 12.904 22.4706 12.7123 22.6623C12.5206 22.854 12.2831 22.9498 11.9998 22.9498C11.7165 22.9498 11.479 22.854 11.2873 22.6623C11.0956 22.4706 10.9998 22.2331 10.9998 21.9498ZM11.9998 18.9998C13.9331 18.9998 15.5831 18.3165 16.9498 16.9498C18.3165 15.5831 18.9998 13.9331 18.9998 11.9998C18.9998 10.0665 18.3165 8.41647 16.9498 7.0498C15.5831 5.68314 13.9331 4.9998 11.9998 4.9998C10.0665 4.9998 8.41647 5.68314 7.0498 7.0498C5.68314 8.41647 4.9998 10.0665 4.9998 11.9998C4.9998 13.9331 5.68314 15.5831 7.0498 16.9498C8.41647 18.3165 10.0665 18.9998 11.9998 18.9998ZM11.9998 15.9998C10.8998 15.9998 9.95814 15.6081 9.1748 14.8248C8.39147 14.0415 7.9998 13.0998 7.9998 11.9998C7.9998 10.8998 8.39147 9.95814 9.1748 9.1748C9.95814 8.39147 10.8998 7.9998 11.9998 7.9998C13.0998 7.9998 14.0415 8.39147 14.8248 9.1748C15.6081 9.95814 15.9998 10.8998 15.9998 11.9998C15.9998 13.0998 15.6081 14.0415 14.8248 14.8248C14.0415 15.6081 13.0998 15.9998 11.9998 15.9998Z" fill="#1B1D22"/>
</svg>
