<svg width="24" height="24" viewBox="0 0 24 24" fill="none" xmlns="http://www.w3.org/2000/svg">
<path d="M6.25 19C5.9 19 5.60417 18.8792 5.3625 18.6375C5.12083 18.3958 5 18.1 5 17.75C5 17.4 5.12083 17.1042 5.3625 16.8625C5.60417 16.6208 5.9 16.5 6.25 16.5H9L12 7.5H9.25C8.9 7.5 8.60417 7.37917 8.3625 7.1375C8.12083 6.89583 8 6.6 8 6.25C8 5.9 8.12083 5.60417 8.3625 5.3625C8.60417 5.12083 8.9 5 9.25 5H16.75C17.1 5 17.3958 5.12083 17.6375 5.3625C17.8792 5.60417 18 5.9 18 6.25C18 6.6 17.8792 6.89583 17.6375 7.1375C17.3958 7.37917 17.1 7.5 16.75 7.5H14.5L11.5 16.5H13.75C14.1 16.5 14.3958 16.6208 14.6375 16.8625C14.8792 17.1042 15 17.4 15 17.75C15 18.1 14.8792 18.3958 14.6375 18.6375C14.3958 18.8792 14.1 19 13.75 19H6.25Z" fill="#656D77"/>
</svg>
