<svg width="20" height="20" viewBox="0 0 20 20" fill="none" xmlns="http://www.w3.org/2000/svg">
<g id="_Italic">
<path id="Vector" d="M5.20841 15.8327C4.91675 15.8327 4.67022 15.732 4.46883 15.5306C4.26744 15.3292 4.16675 15.0827 4.16675 14.791C4.16675 14.4993 4.26744 14.2528 4.46883 14.0514C4.67022 13.85 4.91675 13.7493 5.20841 13.7493H7.50008L10.0001 6.24935H7.70841C7.41675 6.24935 7.17022 6.14865 6.96883 5.94727C6.76744 5.74588 6.66675 5.49935 6.66675 5.20768C6.66675 4.91602 6.76744 4.66949 6.96883 4.4681C7.17022 4.26671 7.41675 4.16602 7.70841 4.16602H13.9584C14.2501 4.16602 14.4966 4.26671 14.698 4.4681C14.8994 4.66949 15.0001 4.91602 15.0001 5.20768C15.0001 5.49935 14.8994 5.74588 14.698 5.94727C14.4966 6.14865 14.2501 6.24935 13.9584 6.24935H12.0834L9.58341 13.7493H11.4584C11.7501 13.7493 11.9966 13.85 12.198 14.0514C12.3994 14.2528 12.5001 14.4993 12.5001 14.791C12.5001 15.0827 12.3994 15.3292 12.198 15.5306C11.9966 15.732 11.7501 15.8327 11.4584 15.8327H5.20841Z" fill="#656D77"/>
</g>
</svg>
