<svg width="24" height="24" viewBox="0 0 24 24" fill="none" xmlns="http://www.w3.org/2000/svg">
<path d="M8.825 12L10.3 10.525C10.5 10.325 10.6 10.0917 10.6 9.825C10.6 9.55833 10.5 9.325 10.3 9.125C10.1 8.925 9.8625 8.825 9.5875 8.825C9.3125 8.825 9.075 8.925 8.875 9.125L6.7 11.3C6.6 11.4 6.52917 11.5083 6.4875 11.625C6.44583 11.7417 6.425 11.8667 6.425 12C6.425 12.1333 6.44583 12.2583 6.4875 12.375C6.52917 12.4917 6.6 12.6 6.7 12.7L8.875 14.875C9.075 15.075 9.3125 15.175 9.5875 15.175C9.8625 15.175 10.1 15.075 10.3 14.875C10.5 14.675 10.6 14.4417 10.6 14.175C10.6 13.9083 10.5 13.675 10.3 13.475L8.825 12ZM15.175 12L13.7 13.475C13.5 13.675 13.4 13.9083 13.4 14.175C13.4 14.4417 13.5 14.675 13.7 14.875C13.9 15.075 14.1375 15.175 14.4125 15.175C14.6875 15.175 14.925 15.075 15.125 14.875L17.3 12.7C17.4 12.6 17.4708 12.4917 17.5125 12.375C17.5542 12.2583 17.575 12.1333 17.575 12C17.575 11.8667 17.5542 11.7417 17.5125 11.625C17.4708 11.5083 17.4 11.4 17.3 11.3L15.125 9.125C15.025 9.025 14.9125 8.95 14.7875 8.9C14.6625 8.85 14.5375 8.825 14.4125 8.825C14.2875 8.825 14.1625 8.85 14.0375 8.9C13.9125 8.95 13.8 9.025 13.7 9.125C13.5 9.325 13.4 9.55833 13.4 9.825C13.4 10.0917 13.5 10.325 13.7 10.525L15.175 12ZM5 21C4.45 21 3.97917 20.8042 3.5875 20.4125C3.19583 20.0208 3 19.55 3 19V5C3 4.45 3.19583 3.97917 3.5875 3.5875C3.97917 3.19583 4.45 3 5 3H19C19.55 3 20.0208 3.19583 20.4125 3.5875C20.8042 3.97917 21 4.45 21 5V19C21 19.55 20.8042 20.0208 20.4125 20.4125C20.0208 20.8042 19.55 21 19 21H5ZM5 19H19V5H5V19Z" fill="#1B1D22"/>
</svg>
