<svg width="20" height="20" viewBox="0 0 20 20" fill="none" xmlns="http://www.w3.org/2000/svg">
<g id="lock_outline" clip-path="url(#clip0_7395_126704)">
<path id="Vector" d="M14.9999 6.66667H14.1666V5C14.1666 2.7 12.2999 0.833336 9.99992 0.833336C7.69992 0.833336 5.83325 2.7 5.83325 5V6.66667H4.99992C4.08325 6.66667 3.33325 7.41667 3.33325 8.33334V16.6667C3.33325 17.5833 4.08325 18.3333 4.99992 18.3333H14.9999C15.9166 18.3333 16.6666 17.5833 16.6666 16.6667V8.33334C16.6666 7.41667 15.9166 6.66667 14.9999 6.66667ZM7.49992 5C7.49992 3.61667 8.61659 2.5 9.99992 2.5C11.3833 2.5 12.4999 3.61667 12.4999 5V6.66667H7.49992V5ZM14.1666 16.6667H5.83325C5.37492 16.6667 4.99992 16.2917 4.99992 15.8333V9.16667C4.99992 8.70834 5.37492 8.33334 5.83325 8.33334H14.1666C14.6249 8.33334 14.9999 8.70834 14.9999 9.16667V15.8333C14.9999 16.2917 14.6249 16.6667 14.1666 16.6667ZM9.99992 14.1667C10.9166 14.1667 11.6666 13.4167 11.6666 12.5C11.6666 11.5833 10.9166 10.8333 9.99992 10.8333C9.08325 10.8333 8.33325 11.5833 8.33325 12.5C8.33325 13.4167 9.08325 14.1667 9.99992 14.1667Z" fill="#656D77"/>
</g>
<defs>
<clipPath id="clip0_7395_126704">
<rect width="20" height="20" fill="white"/>
</clipPath>
</defs>
</svg>
