<svg width="24" height="24" viewBox="0 0 24 24" fill="none" xmlns="http://www.w3.org/2000/svg">
<path d="M10.9998 22.0001V21.0001C8.91647 20.7668 7.12897 19.9043 5.6373 18.4126C4.14564 16.9209 3.28314 15.1334 3.0498 13.0501H2.0498C1.76647 13.0501 1.52897 12.9543 1.3373 12.7626C1.14564 12.5709 1.0498 12.3334 1.0498 12.0501C1.0498 11.7668 1.14564 11.5293 1.3373 11.3376C1.52897 11.1459 1.76647 11.0501 2.0498 11.0501H3.0498C3.28314 8.96676 4.14564 7.17926 5.6373 5.6876C7.12897 4.19593 8.91647 3.33343 10.9998 3.1001V2.1001C10.9998 1.81676 11.0956 1.57926 11.2873 1.3876C11.479 1.19593 11.7165 1.1001 11.9998 1.1001C12.2831 1.1001 12.5206 1.19593 12.7123 1.3876C12.904 1.57926 12.9998 1.81676 12.9998 2.1001V3.1001C15.0831 3.33343 16.8706 4.19593 18.3623 5.6876C19.854 7.17926 20.7165 8.96676 20.9498 11.0501H21.9498C22.2331 11.0501 22.4706 11.1459 22.6623 11.3376C22.854 11.5293 22.9498 11.7668 22.9498 12.0501C22.9498 12.3334 22.854 12.5709 22.6623 12.7626C22.4706 12.9543 22.2331 13.0501 21.9498 13.0501H20.9498C20.7165 15.1334 19.854 16.9209 18.3623 18.4126C16.8706 19.9043 15.0831 20.7668 12.9998 21.0001V22.0001C12.9998 22.2834 12.904 22.5209 12.7123 22.7126C12.5206 22.9043 12.2831 23.0001 11.9998 23.0001C11.7165 23.0001 11.479 22.9043 11.2873 22.7126C11.0956 22.5209 10.9998 22.2834 10.9998 22.0001ZM11.9998 19.0501C13.9331 19.0501 15.5831 18.3668 16.9498 17.0001C18.3165 15.6334 18.9998 13.9834 18.9998 12.0501C18.9998 10.1168 18.3165 8.46676 16.9498 7.1001C15.5831 5.73343 13.9331 5.0501 11.9998 5.0501C10.0665 5.0501 8.41647 5.73343 7.0498 7.1001C5.68314 8.46676 4.9998 10.1168 4.9998 12.0501C4.9998 13.9834 5.68314 15.6334 7.0498 17.0001C8.41647 18.3668 10.0665 19.0501 11.9998 19.0501Z" fill="#1B1D22"/>
</svg>
