<svg width="24" height="24" viewBox="0 0 24 24" fill="none" xmlns="http://www.w3.org/2000/svg">
<path d="M12.125 21.8999C12.0083 21.8999 11.9 21.8874 11.8 21.8624C11.7 21.8374 11.6 21.8082 11.5 21.7749C9.25 21.0249 7.45417 19.6416 6.1125 17.6249C4.77083 15.6082 4.06667 13.4332 4 11.0999V6.3749C4 5.95824 4.12083 5.58324 4.3625 5.2499C4.60417 4.91657 4.91667 4.6749 5.3 4.5249L11.3 2.2749C11.5333 2.19157 11.7667 2.1499 12 2.1499C12.2333 2.1499 12.4667 2.19157 12.7 2.2749L18.7 4.5249C19.0833 4.6749 19.3958 4.91657 19.6375 5.2499C19.8792 5.58324 20 5.95824 20 6.3749V11.0999C20 11.2666 19.9958 11.4332 19.9875 11.5999C19.9792 11.7666 19.9667 11.9332 19.95 12.0999C19.8 12.0666 19.6458 12.0416 19.4875 12.0249C19.3292 12.0082 19.1667 11.9999 19 11.9999C18.8167 11.9999 18.6417 12.0082 18.475 12.0249C18.3083 12.0416 18.1333 12.0666 17.95 12.0999C17.9667 11.9332 17.9792 11.7707 17.9875 11.6124C17.9958 11.4541 18 11.2832 18 11.0999V6.3749L12 4.1249L6 6.3749V11.0999C6 13.1166 6.56667 14.9499 7.7 16.5999C8.83333 18.2499 10.2667 19.3499 12 19.8999C12.35 19.7832 12.6917 19.6416 13.025 19.4749C13.3583 19.3082 13.6833 19.1166 14 18.8999V21.2499C13.8333 21.3332 13.6625 21.4082 13.4875 21.4749C13.3125 21.5416 13.075 21.6416 12.775 21.7749C12.675 21.8082 12.5708 21.8374 12.4625 21.8624C12.3542 21.8874 12.2417 21.8999 12.125 21.8999ZM16.85 21.9999C16.6167 21.9999 16.4167 21.9166 16.25 21.7499C16.0833 21.5832 16 21.3832 16 21.1499V17.8499C16 17.6166 16.0833 17.4166 16.25 17.2499C16.4167 17.0832 16.6167 16.9999 16.85 16.9999H17V15.9999C17 15.4499 17.1958 14.9791 17.5875 14.5874C17.9792 14.1957 18.45 13.9999 19 13.9999C19.55 13.9999 20.0208 14.1957 20.4125 14.5874C20.8042 14.9791 21 15.4499 21 15.9999V16.9999H21.15C21.3833 16.9999 21.5833 17.0832 21.75 17.2499C21.9167 17.4166 22 17.6166 22 17.8499V21.1499C22 21.3832 21.9167 21.5832 21.75 21.7499C21.5833 21.9166 21.3833 21.9999 21.15 21.9999H16.85ZM18 16.9999H20V15.9999C20 15.7166 19.9042 15.4791 19.7125 15.2874C19.5208 15.0957 19.2833 14.9999 19 14.9999C18.7167 14.9999 18.4792 15.0957 18.2875 15.2874C18.0958 15.4791 18 15.7166 18 15.9999V16.9999Z" fill="#1B1D22"/>
</svg>
