<svg width="24" height="24" viewBox="0 0 24 24" fill="none" xmlns="http://www.w3.org/2000/svg">
<path d="M13 8C13 7.44772 12.5523 7 12 7C11.4477 7 11 7.44772 11 8V12C11 12.2652 11.1054 12.5196 11.2929 12.7071L14.1229 15.5371C14.5134 15.9276 15.1466 15.9276 15.5371 15.5371C15.9276 15.1466 15.9276 14.5134 15.5371 14.1229L13 11.5858V8Z" fill="#1B1D22"/>
<path fill-rule="evenodd" clip-rule="evenodd" d="M22 11.915C22 17.4379 17.5228 21.915 12 21.915C6.47715 21.915 2 17.4379 2 11.915C2 6.39219 6.47715 1.91504 12 1.91504C17.5228 1.91504 22 6.39219 22 11.915ZM20 11.915C20 16.3333 16.4183 19.915 12 19.915C7.58172 19.915 4 16.3333 4 11.915C4 7.49676 7.58172 3.91504 12 3.91504C16.4183 3.91504 20 7.49676 20 11.915Z" fill="#1B1D22"/>
</svg>
