<svg width="393" height="272" viewBox="0 0 393 272" fill="none" xmlns="http://www.w3.org/2000/svg">
<g filter="url(#filter0_d_1_4123)">
<rect x="15" y="20" width="361" height="64" rx="14" fill="white" shape-rendering="crispEdges"/>
<rect x="15.75" y="20.75" width="359.5" height="62.5" rx="13.25" stroke="#F7F9FA" stroke-width="1.5" shape-rendering="crispEdges"/>
<rect x="31" y="36" width="32" height="32" rx="16" fill="#E0F8D9"/>
<path d="M40.3818 58.5V45.8174H43.4141L46.9297 55.0986H47.0791L50.5859 45.8174H53.627V58.5H51.2627V49.8691H49.9619L52.4932 46.1689L47.835 58.5H46.165L41.5156 46.1689L44.0469 49.8691H42.7461V58.5H40.3818Z" fill="#005F00"/>
<rect x="79" y="40" width="220" height="8" rx="4" fill="#052E61" fill-opacity="0.12"/>
<rect x="79" y="56" width="100" height="8" rx="4" fill="#052E61" fill-opacity="0.12"/>
</g>
<g filter="url(#filter1_d_1_4123)">
<rect x="15" y="100" width="361" height="64" rx="14" fill="white" shape-rendering="crispEdges"/>
<rect x="15.75" y="100.75" width="359.5" height="62.5" rx="13.25" stroke="#F7F9FA" stroke-width="1.5" shape-rendering="crispEdges"/>
<rect x="31" y="116" width="32" height="32" rx="16" fill="#FAEEFB"/>
<path d="M41.041 138.5L45.4443 125.817H47.7119V128.349H46.9297L43.8271 138.5H41.041ZM43.3965 135.424L44.0469 133.438H49.9092L50.5596 135.424H43.3965ZM50.1816 138.5L47.0791 128.349V125.817H48.5645L52.9766 138.5H50.1816Z" fill="#822198"/>
<rect x="79" y="120" width="219" height="8" rx="4" fill="#052E61" fill-opacity="0.12"/>
<rect x="79" y="136" width="219" height="8" rx="4" fill="#052E61" fill-opacity="0.12"/>
</g>
<g filter="url(#filter2_d_1_4123)">
<rect x="15" y="180" width="361" height="64" rx="14" fill="white" shape-rendering="crispEdges"/>
<rect x="15.75" y="180.75" width="359.5" height="62.5" rx="13.25" stroke="#F7F9FA" stroke-width="1.5" shape-rendering="crispEdges"/>
<rect x="31" y="196" width="32" height="32" rx="16" fill="#FFEFE4"/>
<path d="M45.6641 218.5V208.006H41.8672V205.817H52.124V208.006H48.3184V218.5H45.6641Z" fill="#9B2200"/>
<rect x="79" y="208" width="154" height="8" rx="4" fill="#052E61" fill-opacity="0.12"/>
</g>
<defs>
<filter id="filter0_d_1_4123" x="-9" y="0" width="409" height="112" filterUnits="userSpaceOnUse" color-interpolation-filters="sRGB">
<feFlood flood-opacity="0" result="BackgroundImageFix"/>
<feColorMatrix in="SourceAlpha" type="matrix" values="0 0 0 0 0 0 0 0 0 0 0 0 0 0 0 0 0 0 127 0" result="hardAlpha"/>
<feOffset dy="4"/>
<feGaussianBlur stdDeviation="12"/>
<feComposite in2="hardAlpha" operator="out"/>
<feColorMatrix type="matrix" values="0 0 0 0 0.105882 0 0 0 0 0.113725 0 0 0 0 0.133333 0 0 0 0.1 0"/>
<feBlend mode="normal" in2="BackgroundImageFix" result="effect1_dropShadow_1_4123"/>
<feBlend mode="normal" in="SourceGraphic" in2="effect1_dropShadow_1_4123" result="shape"/>
</filter>
<filter id="filter1_d_1_4123" x="-9" y="80" width="409" height="112" filterUnits="userSpaceOnUse" color-interpolation-filters="sRGB">
<feFlood flood-opacity="0" result="BackgroundImageFix"/>
<feColorMatrix in="SourceAlpha" type="matrix" values="0 0 0 0 0 0 0 0 0 0 0 0 0 0 0 0 0 0 127 0" result="hardAlpha"/>
<feOffset dy="4"/>
<feGaussianBlur stdDeviation="12"/>
<feComposite in2="hardAlpha" operator="out"/>
<feColorMatrix type="matrix" values="0 0 0 0 0.105882 0 0 0 0 0.113725 0 0 0 0 0.133333 0 0 0 0.1 0"/>
<feBlend mode="normal" in2="BackgroundImageFix" result="effect1_dropShadow_1_4123"/>
<feBlend mode="normal" in="SourceGraphic" in2="effect1_dropShadow_1_4123" result="shape"/>
</filter>
<filter id="filter2_d_1_4123" x="-9" y="160" width="409" height="112" filterUnits="userSpaceOnUse" color-interpolation-filters="sRGB">
<feFlood flood-opacity="0" result="BackgroundImageFix"/>
<feColorMatrix in="SourceAlpha" type="matrix" values="0 0 0 0 0 0 0 0 0 0 0 0 0 0 0 0 0 0 127 0" result="hardAlpha"/>
<feOffset dy="4"/>
<feGaussianBlur stdDeviation="12"/>
<feComposite in2="hardAlpha" operator="out"/>
<feColorMatrix type="matrix" values="0 0 0 0 0.105882 0 0 0 0 0.113725 0 0 0 0 0.133333 0 0 0 0.1 0"/>
<feBlend mode="normal" in2="BackgroundImageFix" result="effect1_dropShadow_1_4123"/>
<feBlend mode="normal" in="SourceGraphic" in2="effect1_dropShadow_1_4123" result="shape"/>
</filter>
</defs>
</svg>
