<svg width="24" height="24" viewBox="0 0 24 24" fill="none" xmlns="http://www.w3.org/2000/svg">
<path d="M3.5 20C3.08333 20 2.72917 19.8542 2.4375 19.5625C2.14583 19.2708 2 18.9167 2 18.5C2 18.0833 2.14583 17.7292 2.4375 17.4375C2.72917 17.1458 3.08333 17 3.5 17H4V6C4 5.45 4.19583 4.97917 4.5875 4.5875C4.97917 4.19583 5.45 4 6 4H20C20.2833 4 20.5208 4.09583 20.7125 4.2875C20.9042 4.47917 21 4.71667 21 5C21 5.28333 20.9042 5.52083 20.7125 5.7125C20.5208 5.90417 20.2833 6 20 6H6V17H10.5C10.9167 17 11.2708 17.1458 11.5625 17.4375C11.8542 17.7292 12 18.0833 12 18.5C12 18.9167 11.8542 19.2708 11.5625 19.5625C11.2708 19.8542 10.9167 20 10.5 20H3.5ZM15 20C14.7167 20 14.4792 19.9042 14.2875 19.7125C14.0958 19.5208 14 19.2833 14 19V9C14 8.71667 14.0958 8.47917 14.2875 8.2875C14.4792 8.09583 14.7167 8 15 8H21C21.2833 8 21.5208 8.09583 21.7125 8.2875C21.9042 8.47917 22 8.71667 22 9V19C22 19.2833 21.9042 19.5208 21.7125 19.7125C21.5208 19.9042 21.2833 20 21 20H15ZM16 17H20V10H16V17Z" fill="#1B1D22"/>
</svg>
