<svg width="12" height="12" viewBox="0 0 12 12" fill="none" xmlns="http://www.w3.org/2000/svg">
<path d="M6.09949 11.4627C6.06108 11.4727 6.02775 11.481 6 11.4876C5.97225 11.481 5.93892 11.4727 5.90051 11.4627C5.76801 11.4282 5.57572 11.3731 5.34366 11.2926C4.87791 11.1309 4.2608 10.8694 3.64749 10.4708C2.42721 9.67759 1.25 8.3665 1.25 6.2025V1.91207L6 0.521L10.75 1.91207V6.2025C10.75 8.3665 9.57279 9.67759 8.35251 10.4708C7.7392 10.8694 7.12209 11.1309 6.65634 11.2926C6.42428 11.3731 6.23199 11.4282 6.09949 11.4627Z" fill="#FF4B55" stroke="white"/>
<path fill-rule="evenodd" clip-rule="evenodd" d="M5.42634 4.03626C5.39822 3.71563 5.63447 3.43438 5.95509 3.41188C6.27009 3.38938 6.55134 3.62563 6.58509 3.94626V4.03626L6.40509 6.28626C6.38822 6.49438 6.21384 6.65188 6.00572 6.65188H5.97197C5.77509 6.63501 5.62322 6.48313 5.60634 6.28626L5.42634 4.03626ZM6.49439 7.75379C6.49439 8.02717 6.27278 8.24879 5.99939 8.24879C5.72601 8.24879 5.50439 8.02717 5.50439 7.75379C5.50439 7.48041 5.72601 7.25879 5.99939 7.25879C6.27278 7.25879 6.49439 7.48041 6.49439 7.75379Z" fill="white"/>
</svg>
