<svg width="24" height="24" viewBox="0 0 24 24" fill="none" xmlns="http://www.w3.org/2000/svg">
<path d="M4.7187 4.34006C4.81333 3.69825 4.35307 3.10363 3.69069 3.01195C3.02831 2.92026 2.41464 3.36622 2.32001 4.00803L1.51233 9.4862C1.41771 10.128 1.87796 10.7226 2.54034 10.8143C3.20272 10.906 3.81639 10.46 3.91102 9.81823L4.7187 4.34006Z" fill="#656D77"/>
<path d="M16.8339 14.5138C16.9285 13.872 16.4683 13.2774 15.8059 13.1857C15.1435 13.094 14.5298 13.54 14.4352 14.1818L13.6275 19.6599C13.5329 20.3018 13.9932 20.8964 14.6555 20.9881C15.3179 21.0797 15.9316 20.6338 16.0262 19.992L16.8339 14.5138Z" fill="#656D77"/>
<path d="M9.31836 3.00862C9.98263 3.08634 10.4561 3.67112 10.3759 4.31477L10.3538 4.48993C10.3396 4.60182 10.319 4.76312 10.2934 4.96135C10.242 5.35767 10.1702 5.90238 10.0884 6.49553C9.92685 7.66729 9.72013 9.07483 9.55343 9.88243C9.42221 10.5182 8.78395 10.9305 8.12784 10.8033C7.47173 10.6762 7.04622 10.0577 7.17744 9.42199C7.32617 8.70148 7.52328 7.36993 7.68671 6.18464C7.76742 5.59926 7.83839 5.06095 7.88919 4.66888C7.91458 4.47292 7.93491 4.31368 7.94887 4.20358L7.97026 4.0339C8.05047 3.39025 8.65408 2.93089 9.31836 3.00862Z" fill="#656D77"/>
<path d="M22.4877 14.5138C22.5823 13.872 22.122 13.2774 21.4597 13.1857C20.7973 13.094 20.1836 13.54 20.089 14.1818L19.2813 19.6599C19.1867 20.3018 19.6469 20.8964 20.3093 20.9881C20.9717 21.0797 21.5854 20.6338 21.68 19.992L22.4877 14.5138Z" fill="#656D77"/>
</svg>
