<svg width="20" height="20" viewBox="0 0 20 20" fill="none" xmlns="http://www.w3.org/2000/svg">
<g id="_Quote">
<g id="Union">
<path d="M3.93225 3.61671C4.0111 3.08187 3.62756 2.58636 3.07558 2.50996C2.52359 2.43355 2.0122 2.80518 1.93334 3.34002L1.26028 7.90517C1.18142 8.44001 1.56497 8.93552 2.11695 9.01192C2.66893 9.08833 3.18033 8.7167 3.25918 8.18186L3.93225 3.61671Z" fill="#656D77"/>
<path d="M14.0283 12.0948C14.1071 11.56 13.7236 11.0645 13.1716 10.9881C12.6196 10.9117 12.1082 11.2833 12.0293 11.8181L11.3563 16.3833C11.2774 16.9181 11.661 17.4136 12.213 17.49C12.7649 17.5665 13.2763 17.1948 13.3552 16.66L14.0283 12.0948Z" fill="#656D77"/>
<path d="M7.7653 2.50718C8.31886 2.57195 8.71343 3.05927 8.64658 3.59564L8.62819 3.74161C8.61636 3.83485 8.5992 3.96926 8.5778 4.13446C8.535 4.46472 8.47516 4.91865 8.40701 5.41294C8.27238 6.38941 8.10011 7.56236 7.96119 8.23536C7.85184 8.76514 7.31996 9.10871 6.7732 9.00276C6.22644 8.8968 5.87185 8.38144 5.9812 7.85166C6.10514 7.25123 6.2694 6.14161 6.40559 5.15387C6.47285 4.66605 6.53199 4.21746 6.57433 3.89073C6.59549 3.72743 6.61243 3.59473 6.62406 3.50299L6.64189 3.36158C6.70873 2.82521 7.21173 2.44241 7.7653 2.50718Z" fill="#656D77"/>
<path d="M18.7397 12.0948C18.8186 11.56 18.435 11.0645 17.883 10.9881C17.3311 10.9117 16.8197 11.2833 16.7408 11.8181L16.0677 16.3833C15.9889 16.9181 16.3724 17.4136 16.9244 17.49C17.4764 17.5665 17.9878 17.1948 18.0667 16.66L18.7397 12.0948Z" fill="#656D77"/>
</g>
</g>
</svg>
