<svg width="24" height="24" viewBox="0 0 24 24" fill="none" xmlns="http://www.w3.org/2000/svg">
<path d="M12.15 20C10.8833 20 9.75833 19.625 8.775 18.875C7.79167 18.125 7.08333 17.1 6.65 15.8L8.85 14.85C9.08333 15.65 9.4875 16.3083 10.0625 16.825C10.6375 17.3417 11.35 17.6 12.2 17.6C12.9 17.6 13.5333 17.4333 14.1 17.1C14.6667 16.7667 14.95 16.2333 14.95 15.5C14.95 15.2 14.8917 14.925 14.775 14.675C14.6583 14.425 14.5 14.2 14.3 14H17.1C17.1833 14.2333 17.2458 14.4708 17.2875 14.7125C17.3292 14.9542 17.35 15.2167 17.35 15.5C17.35 16.9333 16.8375 18.0417 15.8125 18.825C14.7875 19.6083 13.5667 20 12.15 20ZM3 12C2.71667 12 2.47917 11.9042 2.2875 11.7125C2.09583 11.5208 2 11.2833 2 11C2 10.7167 2.09583 10.4792 2.2875 10.2875C2.47917 10.0958 2.71667 10 3 10H21C21.2833 10 21.5208 10.0958 21.7125 10.2875C21.9042 10.4792 22 10.7167 22 11C22 11.2833 21.9042 11.5208 21.7125 11.7125C21.5208 11.9042 21.2833 12 21 12H3ZM12.05 3.85C13.15 3.85 14.1125 4.12083 14.9375 4.6625C15.7625 5.20417 16.4 6.03333 16.85 7.15L14.65 8.125C14.5 7.64166 14.2208 7.20833 13.8125 6.825C13.4042 6.44166 12.8333 6.25 12.1 6.25C11.4167 6.25 10.85 6.40417 10.4 6.7125C9.95 7.02083 9.7 7.45 9.65 8H7.25C7.28333 6.85 7.7375 5.87083 8.6125 5.0625C9.4875 4.25417 10.6333 3.85 12.05 3.85Z" fill="#656D77"/>
</svg>
