<svg width="20" height="20" viewBox="0 0 20 20" fill="none" xmlns="http://www.w3.org/2000/svg">
<g id="_Strikethrough">
<path id="Vector" d="M10.1251 16.6654C9.06953 16.6654 8.13203 16.3529 7.31258 15.7279C6.49314 15.1029 5.90286 14.2487 5.54175 13.1654L7.37508 12.3737C7.56953 13.0404 7.90633 13.589 8.3855 14.0195C8.86466 14.4501 9.45841 14.6654 10.1667 14.6654C10.7501 14.6654 11.2779 14.5265 11.7501 14.2487C12.2223 13.9709 12.4584 13.5265 12.4584 12.9154C12.4584 12.6654 12.4098 12.4362 12.3126 12.2279C12.2154 12.0195 12.0834 11.832 11.9167 11.6654H14.2501C14.3195 11.8598 14.3716 12.0577 14.4063 12.2591C14.4411 12.4605 14.4584 12.6793 14.4584 12.9154C14.4584 14.1098 14.0313 15.0334 13.1772 15.6862C12.323 16.339 11.3056 16.6654 10.1251 16.6654ZM2.50008 9.9987C2.26397 9.9987 2.06605 9.91884 1.90633 9.75911C1.74661 9.59939 1.66675 9.40148 1.66675 9.16536C1.66675 8.92925 1.74661 8.73134 1.90633 8.57161C2.06605 8.41189 2.26397 8.33203 2.50008 8.33203H17.5001C17.7362 8.33203 17.9341 8.41189 18.0938 8.57161C18.2536 8.73134 18.3334 8.92925 18.3334 9.16536C18.3334 9.40148 18.2536 9.59939 18.0938 9.75911C17.9341 9.91884 17.7362 9.9987 17.5001 9.9987H2.50008ZM10.0417 3.20703C10.9584 3.20703 11.7605 3.43273 12.448 3.88411C13.1355 4.3355 13.6667 5.02648 14.0417 5.95703L12.2084 6.76953C12.0834 6.36675 11.8508 6.00564 11.5105 5.6862C11.1702 5.36675 10.6945 5.20703 10.0834 5.20703C9.51397 5.20703 9.04175 5.3355 8.66675 5.59245C8.29175 5.84939 8.08341 6.20703 8.04175 6.66536H6.04175C6.06953 5.70703 6.448 4.89106 7.17716 4.21745C7.90633 3.54384 8.86119 3.20703 10.0417 3.20703Z" fill="#656D77"/>
</g>
</svg>
