<svg width="20" height="20" viewBox="0 0 20 20" fill="none" xmlns="http://www.w3.org/2000/svg">
<g id="_Underline">
<path id="Vector" d="M5.00008 17.5C4.76397 17.5 4.56605 17.4201 4.40633 17.2604C4.24661 17.1007 4.16675 16.9028 4.16675 16.6667C4.16675 16.4306 4.24661 16.2326 4.40633 16.0729C4.56605 15.9132 4.76397 15.8333 5.00008 15.8333H15.0001C15.2362 15.8333 15.4341 15.9132 15.5938 16.0729C15.7536 16.2326 15.8334 16.4306 15.8334 16.6667C15.8334 16.9028 15.7536 17.1007 15.5938 17.2604C15.4341 17.4201 15.2362 17.5 15.0001 17.5H5.00008ZM10.0001 14.1667C8.5973 14.1667 7.50703 13.7292 6.72925 12.8542C5.95147 11.9792 5.56258 10.8194 5.56258 9.375V3.5625C5.56258 3.27083 5.67022 3.02083 5.8855 2.8125C6.10078 2.60417 6.35425 2.5 6.64591 2.5C6.93758 2.5 7.18758 2.60417 7.39591 2.8125C7.60425 3.02083 7.70841 3.27083 7.70841 3.5625V9.5C7.70841 10.2778 7.90286 10.9097 8.29175 11.3958C8.68064 11.8819 9.25008 12.125 10.0001 12.125C10.7501 12.125 11.3195 11.8819 11.7084 11.3958C12.0973 10.9097 12.2917 10.2778 12.2917 9.5V3.5625C12.2917 3.27083 12.3994 3.02083 12.6147 2.8125C12.8299 2.60417 13.0834 2.5 13.3751 2.5C13.6667 2.5 13.9167 2.60417 14.1251 2.8125C14.3334 3.02083 14.4376 3.27083 14.4376 3.5625V9.375C14.4376 10.8194 14.0487 11.9792 13.2709 12.8542C12.4931 13.7292 11.4029 14.1667 10.0001 14.1667Z" fill="#656D77"/>
</g>
</svg>
