<svg width="24" height="24" viewBox="0 0 24 24" fill="none" xmlns="http://www.w3.org/2000/svg">
<path d="M6 21C5.71667 21 5.47917 20.9042 5.2875 20.7125C5.09583 20.5208 5 20.2833 5 20C5 19.7167 5.09583 19.4792 5.2875 19.2875C5.47917 19.0958 5.71667 19 6 19H18C18.2833 19 18.5208 19.0958 18.7125 19.2875C18.9042 19.4792 19 19.7167 19 20C19 20.2833 18.9042 20.5208 18.7125 20.7125C18.5208 20.9042 18.2833 21 18 21H6ZM12 17C10.3167 17 9.00833 16.475 8.075 15.425C7.14167 14.375 6.675 12.9833 6.675 11.25V4.275C6.675 3.925 6.80417 3.625 7.0625 3.375C7.32083 3.125 7.625 3 7.975 3C8.325 3 8.625 3.125 8.875 3.375C9.125 3.625 9.25 3.925 9.25 4.275V11.4C9.25 12.3333 9.48333 13.0917 9.95 13.675C10.4167 14.2583 11.1 14.55 12 14.55C12.9 14.55 13.5833 14.2583 14.05 13.675C14.5167 13.0917 14.75 12.3333 14.75 11.4V4.275C14.75 3.925 14.8792 3.625 15.1375 3.375C15.3958 3.125 15.7 3 16.05 3C16.4 3 16.7 3.125 16.95 3.375C17.2 3.625 17.325 3.925 17.325 4.275V11.25C17.325 12.9833 16.8583 14.375 15.925 15.425C14.9917 16.475 13.6833 17 12 17Z" fill="#656D77"/>
</svg>
