<svg width="20" height="20" viewBox="0 0 20 20" fill="none" xmlns="http://www.w3.org/2000/svg">
<g id="_Code block">
<path id="Vector" d="M7.35417 10L8.58333 8.77083C8.75 8.60417 8.83333 8.40972 8.83333 8.1875C8.83333 7.96528 8.75 7.77083 8.58333 7.60417C8.41667 7.4375 8.21875 7.35417 7.98958 7.35417C7.76042 7.35417 7.5625 7.4375 7.39583 7.60417L5.58333 9.41667C5.5 9.5 5.44097 9.59028 5.40625 9.6875C5.37153 9.78472 5.35417 9.88889 5.35417 10C5.35417 10.1111 5.37153 10.2153 5.40625 10.3125C5.44097 10.4097 5.5 10.5 5.58333 10.5833L7.39583 12.3958C7.5625 12.5625 7.76042 12.6458 7.98958 12.6458C8.21875 12.6458 8.41667 12.5625 8.58333 12.3958C8.75 12.2292 8.83333 12.0347 8.83333 11.8125C8.83333 11.5903 8.75 11.3958 8.58333 11.2292L7.35417 10ZM12.6458 10L11.4167 11.2292C11.25 11.3958 11.1667 11.5903 11.1667 11.8125C11.1667 12.0347 11.25 12.2292 11.4167 12.3958C11.5833 12.5625 11.7812 12.6458 12.0104 12.6458C12.2396 12.6458 12.4375 12.5625 12.6042 12.3958L14.4167 10.5833C14.5 10.5 14.559 10.4097 14.5938 10.3125C14.6285 10.2153 14.6458 10.1111 14.6458 10C14.6458 9.88889 14.6285 9.78472 14.5938 9.6875C14.559 9.59028 14.5 9.5 14.4167 9.41667L12.6042 7.60417C12.5208 7.52083 12.4271 7.45833 12.3229 7.41667C12.2188 7.375 12.1146 7.35417 12.0104 7.35417C11.9062 7.35417 11.8021 7.375 11.6979 7.41667C11.5938 7.45833 11.5 7.52083 11.4167 7.60417C11.25 7.77083 11.1667 7.96528 11.1667 8.1875C11.1667 8.40972 11.25 8.60417 11.4167 8.77083L12.6458 10ZM4.16667 17.5C3.70833 17.5 3.31597 17.3368 2.98958 17.0104C2.66319 16.684 2.5 16.2917 2.5 15.8333V4.16667C2.5 3.70833 2.66319 3.31597 2.98958 2.98958C3.31597 2.66319 3.70833 2.5 4.16667 2.5H15.8333C16.2917 2.5 16.684 2.66319 17.0104 2.98958C17.3368 3.31597 17.5 3.70833 17.5 4.16667V15.8333C17.5 16.2917 17.3368 16.684 17.0104 17.0104C16.684 17.3368 16.2917 17.5 15.8333 17.5H4.16667ZM4.16667 15.8333H15.8333V4.16667H4.16667V15.8333Z" fill="#656D77"/>
</g>
</svg>
