<svg width="24" height="24" viewBox="0 0 24 24" fill="none" xmlns="http://www.w3.org/2000/svg">
<path d="M12.7071 2.29289C12.3166 1.90237 11.6834 1.90237 11.2929 2.29289L8.79289 4.79289C8.40237 5.18342 8.40237 5.81658 8.79289 6.20711C9.18342 6.59763 9.81658 6.59763 10.2071 6.20711L11 5.41421V14C11 14.5523 11.4477 15 12 15C12.5523 15 13 14.5523 13 14V5.41421L13.7929 6.20711C14.1834 6.59763 14.8166 6.59763 15.2071 6.20711C15.5976 5.81658 15.5976 5.18342 15.2071 4.79289L12.7071 2.29289Z" fill="#1B1D22"/>
<path d="M6 20V10H8C8.55228 10 9 9.55228 9 9C9 8.44772 8.55228 8 8 8H6C4.89543 8 4 8.89543 4 10V20C4 21.1046 4.89543 22 6 22H18C19.1046 22 20 21.1046 20 20V10C20 8.89543 19.1046 8 18 8H16C15.4477 8 15 8.44772 15 9C15 9.55228 15.4477 10 16 10H18V20H6Z" fill="#1B1D22"/>
</svg>
