<?xml version="1.0" encoding="UTF-8"?>
<svg id="_Слой_1" data-name="Слой_1" xmlns="http://www.w3.org/2000/svg" version="1.1" viewBox="0 0 512 512">
  <!-- Generator: Adobe Illustrator 29.8.1, SVG Export Plug-In . SVG Version: 2.1.1 Build 2)  -->
  <defs>
    <style>
      .st0 {
        fill: #003dff;
      }

      .st1 {
        fill: #1cd6a1;
      }

      .st2 {
        fill: #fff;
        fill-rule: evenodd;
      }
    </style>
  </defs>
  <rect class="st1" x=".24" y=".24" width="511.52" height="511.52" rx="132.02" ry="132.02"/>
  <g>
    <path class="st0" d="M209.94,306.5c-10.38,0-20.14-4.04-27.47-11.38-7.34-7.34-11.38-17.1-11.38-27.47v-49.37c0-7.07,5.73-12.8,12.8-12.8s12.8,5.73,12.8,12.8v49.37c0,7.31,5.95,13.25,13.25,13.25s13.25-5.95,13.25-13.25v-49.37c0-7.07,5.73-12.8,12.8-12.8s12.8,5.73,12.8,12.8v49.37c0,10.38-4.04,20.14-11.38,27.47-7.34,7.34-17.1,11.38-27.47,11.38Z"/>
    <path class="st0" d="M328.09,299.82h-28.79c-5.73,0-11.24-1.45-16.38-4.32-4.66-2.6-8.78-6.24-12.25-10.81-6.6-8.7-10.23-20.08-10.23-32.04s3.63-23.33,10.23-32.04c3.47-4.58,7.59-8.21,12.25-10.81,5.14-2.87,10.65-4.32,16.38-4.32h28.79c7.07,0,12.8,5.73,12.8,12.8s-5.73,12.8-12.8,12.8h-28.79c-3.86,0-6.81,3.13-8.22,5-3.2,4.22-5.03,10.26-5.03,16.57s1.83,12.35,5.03,16.57c1.42,1.87,4.37,5,8.22,5h28.79c7.07,0,12.8,5.73,12.8,12.8s-5.73,12.8-12.8,12.8Z"/>
  </g>
  <g>
    <path class="st2" d="M209.61,71.57c0-14.19,11.53-25.69,25.74-25.69,96.37,0,174.49,77.96,174.49,174.13,0,14.19-11.53,25.69-25.74,25.69s-25.74-11.5-25.74-25.69c0-67.79-55.07-122.74-123-122.74-14.22,0-25.74-11.5-25.74-25.69Z"/>
    <path class="st2" d="M461.55,194.32c14.22,0,25.74,11.5,25.74,25.69,0,96.17-78.12,174.12-174.49,174.12-14.22,0-25.74-11.5-25.74-25.69s11.53-25.69,25.74-25.69c67.93,0,123-54.95,123-122.74,0-14.19,11.53-25.69,25.74-25.69Z"/>
    <path class="st2" d="M309.73,442.66c0,14.19-11.53,25.69-25.74,25.69-96.37,0-174.49-77.96-174.49-174.13,0-14.19,11.53-25.69,25.74-25.69s25.74,11.5,25.74,25.69c0,67.79,55.07,122.74,123,122.74,14.22,0,25.74,11.5,25.74,25.69Z"/>
    <path class="st2" d="M57.39,319.91c-14.22,0-25.74-11.5-25.74-25.69,0-96.17,78.12-174.13,174.49-174.13,14.22,0,25.74,11.5,25.74,25.69s-11.53,25.69-25.74,25.69c-67.93,0-123,54.95-123,122.74,0,14.19-11.53,25.69-25.74,25.69Z"/>
  </g>
</svg>