<?xml version="1.0" encoding="UTF-8"?>
<svg id="_Слой_1" data-name="Слой_1" xmlns="http://www.w3.org/2000/svg" version="1.1" viewBox="0 0 512 512">
  <!-- Generator: Adobe Illustrator 29.8.1, SVG Export Plug-In . SVG Version: 2.1.1 Build 2)  -->
  <defs>
    <style>
      .st0 {
        fill: #003dff;
      }

      .st1, .st2 {
        fill: #1cd6a1;
      }

      .st2 {
        fill-rule: evenodd;
      }
    </style>
  </defs>
  <path class="st1" d="M379.71,19.75c29.92,0,58.05,11.65,79.21,32.81,21.16,21.16,32.81,49.29,32.81,79.21v247.48c0,29.92-11.65,58.05-32.81,79.21-21.16,21.16-49.29,32.81-79.21,32.81h-247.48c-29.92,0-58.05-11.65-79.21-32.81-21.16-21.16-32.81-49.29-32.81-79.21v-247.48c0-29.92,11.65-58.05,32.81-79.21s49.29-32.81,79.21-32.81h247.48M379.71-.25h-247.48C59.32-.25.21,58.86.21,131.78v247.48c0,72.91,59.11,132.02,132.02,132.02h247.48c72.91,0,132.02-59.11,132.02-132.02v-247.48C511.73,58.86,452.62-.25,379.71-.25h0Z"/>
  <g>
    <path class="st0" d="M209.91,306.02c-10.38,0-20.14-4.04-27.47-11.38-7.34-7.34-11.38-17.1-11.38-27.47v-49.37c0-7.07,5.73-12.8,12.8-12.8s12.8,5.73,12.8,12.8v49.37c0,7.31,5.95,13.25,13.25,13.25s13.25-5.95,13.25-13.25v-49.37c0-7.07,5.73-12.8,12.8-12.8s12.8,5.73,12.8,12.8v49.37c0,10.38-4.04,20.14-11.38,27.47-7.34,7.34-17.1,11.38-27.47,11.38Z"/>
    <path class="st0" d="M328.06,299.33h-28.79c-5.73,0-11.24-1.45-16.38-4.32-4.66-2.6-8.78-6.24-12.25-10.81-6.6-8.7-10.23-20.08-10.23-32.04s3.63-23.33,10.23-32.04c3.47-4.58,7.59-8.21,12.25-10.81,5.14-2.87,10.65-4.32,16.38-4.32h28.79c7.07,0,12.8,5.73,12.8,12.8s-5.73,12.8-12.8,12.8h-28.79c-3.86,0-6.81,3.13-8.22,5-3.2,4.22-5.03,10.26-5.03,16.57s1.83,12.35,5.03,16.57c1.42,1.87,4.37,5,8.22,5h28.79c7.07,0,12.8,5.73,12.8,12.8s-5.73,12.8-12.8,12.8Z"/>
  </g>
  <g>
    <path class="st2" d="M209.1,81.47c0-13.35,10.84-24.17,24.22-24.17,90.64,0,164.13,73.33,164.13,163.79,0,13.35-10.84,24.17-24.22,24.17s-24.22-10.82-24.22-24.17c0-63.76-51.8-115.46-115.7-115.46-13.37,0-24.22-10.82-24.22-24.17Z"/>
    <path class="st2" d="M446.08,196.93c13.37,0,24.22,10.82,24.22,24.17,0,90.46-73.48,163.78-164.13,163.78-13.37,0-24.22-10.82-24.22-24.16s10.84-24.17,24.22-24.17c63.9,0,115.7-51.69,115.7-115.46,0-13.35,10.84-24.17,24.22-24.17Z"/>
    <path class="st2" d="M303.28,430.53c0,13.35-10.84,24.17-24.22,24.17-90.64,0-164.13-73.33-164.13-163.79,0-13.35,10.84-24.17,24.22-24.17s24.22,10.82,24.22,24.17c0,63.76,51.8,115.46,115.7,115.46,13.37,0,24.22,10.82,24.22,24.17Z"/>
    <path class="st2" d="M65.92,315.07c-13.37,0-24.22-10.82-24.22-24.17,0-90.46,73.48-163.79,164.13-163.79,13.37,0,24.22,10.82,24.22,24.17s-10.84,24.17-24.22,24.17c-63.9,0-115.7,51.69-115.7,115.46,0,13.35-10.84,24.17-24.22,24.17Z"/>
  </g>
</svg>