<?xml version="1.0" encoding="UTF-8"?>
<svg id="_Слой_1" data-name="Слой_1" xmlns="http://www.w3.org/2000/svg" version="1.1" viewBox="0 0 512 512">
  <!-- Generator: Adobe Illustrator 29.8.1, SVG Export Plug-In . SVG Version: 2.1.1 Build 2)  -->
  <defs>
    <style>
      .st0 {
        fill: #003dff;
      }

      .st1, .st2 {
        fill: #fff;
      }

      .st3 {
        fill: #1cd6a1;
      }

      .st2 {
        fill-rule: evenodd;
      }

      .st4 {
        opacity: .15;
      }
    </style>
  </defs>
  <circle class="st0" cx="256" cy="256" r="256"/>
  <circle class="st3" cx="256" cy="256" r="221.95"/>
  <g>
    <g>
      <path class="st0" d="M217.09,301.22c-19.35,0-35.09-15.74-35.09-35.09v-42.25c0-7.06,5.73-12.79,12.79-12.79s12.79,5.73,12.79,12.79v42.25c0,5.24,4.27,9.51,9.51,9.51s9.51-4.27,9.51-9.51v-42.25c0-7.06,5.73-12.79,12.79-12.79s12.79,5.73,12.79,12.79v42.25c0,19.35-15.74,35.09-35.09,35.09Z"/>
      <path class="st0" d="M318.21,295.5h-24.64c-5.22,0-10.23-1.32-14.91-3.93-4.21-2.35-7.93-5.63-11.05-9.75-5.89-7.77-9.13-17.9-9.13-28.53s3.24-20.76,9.13-28.53c3.12-4.12,6.84-7.4,11.05-9.75,4.68-2.61,9.69-3.93,14.91-3.93h24.64c7.06,0,12.79,5.73,12.79,12.79s-5.73,12.79-12.79,12.79h-24.64c-4.4,0-9.51,7.26-9.51,16.63s5.11,16.63,9.51,16.63h24.64c7.06,0,12.79,5.73,12.79,12.79s-5.73,12.79-12.79,12.79Z"/>
    </g>
    <g>
      <path class="st2" d="M218.68,105.31c0-11.61,9.43-21.02,21.06-21.02,78.85,0,142.77,63.79,142.77,142.47,0,11.61-9.43,21.02-21.06,21.02s-21.06-9.41-21.06-21.02c0-55.47-45.06-100.43-100.64-100.43-11.63,0-21.06-9.41-21.06-21.02Z"/>
      <path class="st2" d="M424.82,205.74c11.63,0,21.06,9.41,21.06,21.02,0,78.69-63.92,142.47-142.77,142.47-11.63,0-21.06-9.41-21.06-21.02s9.43-21.02,21.06-21.02c55.58,0,100.64-44.97,100.64-100.43,0-11.61,9.43-21.02,21.06-21.02Z"/>
      <path class="st2" d="M300.6,408.94c0,11.61-9.43,21.02-21.06,21.02-78.85,0-142.77-63.79-142.77-142.47,0-11.61,9.43-21.02,21.06-21.02s21.06,9.41,21.06,21.02c0,55.47,45.06,100.43,100.64,100.43,11.63,0,21.06,9.41,21.06,21.02Z"/>
      <path class="st2" d="M94.13,308.51c-11.63,0-21.06-9.41-21.06-21.02,0-78.69,63.92-142.47,142.77-142.47,11.63,0,21.06,9.41,21.06,21.02s-9.43,21.02-21.06,21.02c-55.58,0-100.64,44.97-100.64,100.43,0,11.61-9.43,21.02-21.06,21.02Z"/>
    </g>
  </g>
  <g class="st4">
    <path class="st1" d="M49.52,256c0-114.04,92.45-206.48,206.48-206.48,57.02,0,108.64,23.11,146.01,60.48l35.01-35.01c-99.97-99.97-262.06-99.97-362.04,0-99.97,99.97-99.97,262.06,0,362.04l35.01-35.01c-37.37-37.37-60.48-88.99-60.48-146.01Z"/>
  </g>
</svg>