<svg width="20" height="20" viewBox="0 0 20 20" fill="none" xmlns="http://www.w3.org/2000/svg">
<g id="release_alert_FILL0_wght500_GRAD0_opsz20 1">
<path id="Vector" d="M6.77628 18.062L5.56205 16.0611L3.2953 15.5453C3.07428 15.497 2.89908 15.3883 2.76969 15.2192C2.64032 15.0501 2.58952 14.8534 2.6173 14.6291L2.82563 12.3048L1.28307 10.5747C1.13814 10.3987 1.06567 10.2071 1.06567 10C1.06567 9.79288 1.13814 9.6013 1.28307 9.42527L2.82563 7.69521L2.6173 5.37092C2.58952 5.14658 2.64032 4.94988 2.76969 4.78079C2.89908 4.61171 3.07428 4.50301 3.2953 4.45471L5.56205 3.93885L6.77628 1.93796C6.88678 1.76193 7.04295 1.63768 7.2448 1.56521C7.44665 1.49275 7.65113 1.49622 7.85826 1.57562L10 2.50317L12.1418 1.57562C12.3489 1.49622 12.5534 1.49275 12.7552 1.56521C12.9571 1.63768 13.1132 1.76193 13.2237 1.93796L14.438 3.93885L16.7047 4.45471C16.9257 4.50301 17.1009 4.61171 17.2303 4.78079C17.3597 4.94988 17.4105 5.14658 17.3827 5.37092L17.1744 7.69521L18.7169 9.42527C18.8619 9.6013 18.9343 9.79288 18.9343 10C18.9343 10.2071 18.8619 10.3987 18.7169 10.5747L17.1744 12.3048L17.3827 14.6291C17.4105 14.8534 17.3597 15.0501 17.2303 15.2192C17.1009 15.3883 16.9257 15.497 16.7047 15.5453L14.438 16.0611L13.2237 18.062C13.1132 18.2381 12.9571 18.3623 12.7552 18.4348C12.5534 18.5072 12.3489 18.5038 12.1418 18.4244L10 17.4968L7.85826 18.4244C7.65113 18.5038 7.44665 18.5072 7.2448 18.4348C7.04295 18.3623 6.88678 18.2381 6.77628 18.062ZM7.85826 16.5294L10 15.6178L12.1418 16.5294L13.3352 14.5285L15.5969 14.0177L15.3985 11.7251L16.9153 10L15.3985 8.27492L15.5969 5.98233L13.3352 5.47146L12.1418 3.47056L10 4.38225L7.85826 3.47056L6.66486 5.47146L4.40309 5.9615L4.60147 8.27492L3.08469 10L4.6223 11.7251L4.40309 14.0385L6.66486 14.5494L7.85826 16.5294ZM10 14.1694C10.2482 14.1694 10.4593 14.0824 10.6334 13.9083C10.8075 13.7342 10.8945 13.5231 10.8945 13.2749C10.8945 13.0267 10.8075 12.8148 10.6334 12.639C10.4593 12.4633 10.2482 12.3755 10 12.3755C9.75181 12.3755 9.54069 12.4633 9.36663 12.639C9.19256 12.8148 9.10553 13.0267 9.10553 13.2749C9.10553 13.5231 9.19256 13.7342 9.36663 13.9083C9.54069 14.0824 9.75181 14.1694 10 14.1694ZM10 11.01C10.2382 11.01 10.4419 10.9254 10.611 10.7563C10.78 10.5872 10.8646 10.3836 10.8646 10.1454V6.75996C10.8646 6.52174 10.78 6.31808 10.611 6.149C10.4419 5.97992 10.2382 5.89538 10 5.89538C9.76179 5.89538 9.55813 5.97992 9.38905 6.149C9.21997 6.31808 9.13542 6.52174 9.13542 6.75996V10.1454C9.13542 10.3836 9.21997 10.5872 9.38905 10.7563C9.55813 10.9254 9.76179 11.01 10 11.01Z" fill="#656D77"/>
</g>
</svg>
