<svg width="12" height="14" viewBox="0 0 12 14" fill="none" xmlns="http://www.w3.org/2000/svg">
<path d="M10 14C9.45 14 8.97917 13.8042 8.5875 13.4125C8.19583 13.0208 8 12.55 8 12V2C8 1.45 8.19583 0.979167 8.5875 0.5875C8.97917 0.195833 9.45 0 10 0C10.55 0 11.0208 0.195833 11.4125 0.5875C11.8042 0.979167 12 1.45 12 2V12C12 12.55 11.8042 13.0208 11.4125 13.4125C11.0208 13.8042 10.55 14 10 14ZM2 14C1.45 14 0.979167 13.8042 0.5875 13.4125C0.195833 13.0208 0 12.55 0 12V2C0 1.45 0.195833 0.979167 0.5875 0.5875C0.979167 0.195833 1.45 0 2 0C2.55 0 3.02083 0.195833 3.4125 0.5875C3.80417 0.979167 4 1.45 4 2V12C4 12.55 3.80417 13.0208 3.4125 13.4125C3.02083 13.8042 2.55 14 2 14Z" fill="#656D77"/>
</svg>
