<svg width="24" height="24" viewBox="0 0 24 24" fill="none" xmlns="http://www.w3.org/2000/svg">
<path d="M20 19C19.7167 19 19.4794 18.904 19.288 18.712C19.096 18.5207 19 18.2834 19 18V15C19 14.1667 18.7084 13.4584 18.125 12.875C17.5417 12.2917 16.8334 12 16 12H6.80005L9.72505 14.925C9.90838 15.1084 10 15.3334 10 15.6C10 15.8667 9.90005 16.1 9.70005 16.3C9.51672 16.4834 9.28338 16.575 9.00005 16.575C8.71672 16.575 8.48338 16.4834 8.30005 16.3L3.70005 11.7C3.60005 11.6 3.52938 11.4917 3.48805 11.375C3.44605 11.2584 3.42505 11.1334 3.42505 11C3.42505 10.8667 3.44605 10.7417 3.48805 10.625C3.52938 10.5084 3.60005 10.4 3.70005 10.3L8.32505 5.67502C8.50838 5.49169 8.73338 5.40002 9.00005 5.40002C9.26672 5.40002 9.50005 5.50002 9.70005 5.70002C9.88338 5.88336 9.97505 6.11669 9.97505 6.40002C9.97505 6.68336 9.88338 6.91669 9.70005 7.10002L6.80005 10H16C17.3834 10 18.5627 10.4874 19.538 11.462C20.5127 12.4374 21 13.6167 21 15V18C21 18.2834 20.904 18.5207 20.712 18.712C20.5207 18.904 20.2834 19 20 19Z" fill="#1B1D22"/>
</svg>
