<svg width="542" height="542" viewBox="0 0 542 542" fill="none" xmlns="http://www.w3.org/2000/svg">
<path fill-rule="evenodd" clip-rule="evenodd" d="M189.653 33.3829C189.653 15.4234 204.243 0.864411 222.24 0.86441C344.217 0.864405 443.099 99.5416 443.099 221.266C443.099 239.225 428.51 253.784 410.513 253.784C392.517 253.784 377.927 239.225 377.927 221.266C377.927 135.46 308.224 65.9013 222.24 65.9013C204.243 65.9013 189.653 51.3423 189.653 33.3829Z" fill="white"/>
<path fill-rule="evenodd" clip-rule="evenodd" d="M508.55 188.747C526.546 188.747 541.136 203.306 541.136 221.266C541.136 342.99 442.253 441.667 320.276 441.667C302.279 441.667 287.69 427.109 287.69 409.149C287.69 391.19 302.279 376.631 320.276 376.631C406.26 376.631 475.964 307.071 475.964 221.266C475.964 203.306 490.553 188.747 508.55 188.747Z" fill="white"/>
<path fill-rule="evenodd" clip-rule="evenodd" d="M352.859 508.612C352.859 526.572 338.27 541.131 320.273 541.131C198.295 541.131 99.4131 442.454 99.4131 320.729C99.4131 302.77 114.002 288.211 131.999 288.211C149.996 288.211 164.585 302.77 164.585 320.729C164.585 406.535 234.289 476.094 320.273 476.094C338.27 476.094 352.859 490.653 352.859 508.612Z" fill="white"/>
<path fill-rule="evenodd" clip-rule="evenodd" d="M33.4508 353.248C15.454 353.248 0.864717 338.689 0.864716 320.729C0.864705 199.005 99.7471 100.328 221.725 100.328C239.721 100.328 254.311 114.887 254.311 132.846C254.311 150.806 239.721 165.365 221.725 165.365C135.741 165.365 66.0369 234.924 66.0369 320.729C66.0369 338.689 51.4476 353.248 33.4508 353.248Z" fill="white"/>
</svg>
