<svg width="20" height="20" viewBox="0 0 20 20" fill="none" xmlns="http://www.w3.org/2000/svg">
<g id="_Indent decrease">
<path id="Vector" d="M3.33333 17.5C3.09722 17.5 2.89931 17.4201 2.73958 17.2604C2.57986 17.1007 2.5 16.9028 2.5 16.6667C2.5 16.4306 2.57986 16.2326 2.73958 16.0729C2.89931 15.9132 3.09722 15.8333 3.33333 15.8333H16.6667C16.9028 15.8333 17.1007 15.9132 17.2604 16.0729C17.4201 16.2326 17.5 16.4306 17.5 16.6667C17.5 16.9028 17.4201 17.1007 17.2604 17.2604C17.1007 17.4201 16.9028 17.5 16.6667 17.5H3.33333ZM10 14.1667C9.76389 14.1667 9.56597 14.0868 9.40625 13.9271C9.24653 13.7674 9.16667 13.5694 9.16667 13.3333C9.16667 13.0972 9.24653 12.8993 9.40625 12.7396C9.56597 12.5799 9.76389 12.5 10 12.5H16.6667C16.9028 12.5 17.1007 12.5799 17.2604 12.7396C17.4201 12.8993 17.5 13.0972 17.5 13.3333C17.5 13.5694 17.4201 13.7674 17.2604 13.9271C17.1007 14.0868 16.9028 14.1667 16.6667 14.1667H10ZM10 10.8333C9.76389 10.8333 9.56597 10.7535 9.40625 10.5938C9.24653 10.434 9.16667 10.2361 9.16667 10C9.16667 9.76389 9.24653 9.56597 9.40625 9.40625C9.56597 9.24653 9.76389 9.16667 10 9.16667H16.6667C16.9028 9.16667 17.1007 9.24653 17.2604 9.40625C17.4201 9.56597 17.5 9.76389 17.5 10C17.5 10.2361 17.4201 10.434 17.2604 10.5938C17.1007 10.7535 16.9028 10.8333 16.6667 10.8333H10ZM10 7.5C9.76389 7.5 9.56597 7.42014 9.40625 7.26042C9.24653 7.10069 9.16667 6.90278 9.16667 6.66667C9.16667 6.43056 9.24653 6.23264 9.40625 6.07292C9.56597 5.91319 9.76389 5.83333 10 5.83333H16.6667C16.9028 5.83333 17.1007 5.91319 17.2604 6.07292C17.4201 6.23264 17.5 6.43056 17.5 6.66667C17.5 6.90278 17.4201 7.10069 17.2604 7.26042C17.1007 7.42014 16.9028 7.5 16.6667 7.5H10ZM3.33333 4.16667C3.09722 4.16667 2.89931 4.08681 2.73958 3.92708C2.57986 3.76736 2.5 3.56944 2.5 3.33333C2.5 3.09722 2.57986 2.89931 2.73958 2.73958C2.89931 2.57986 3.09722 2.5 3.33333 2.5H16.6667C16.9028 2.5 17.1007 2.57986 17.2604 2.73958C17.4201 2.89931 17.5 3.09722 17.5 3.33333C17.5 3.56944 17.4201 3.76736 17.2604 3.92708C17.1007 4.08681 16.9028 4.16667 16.6667 4.16667H3.33333ZM5.125 12.625L2.79167 10.2917C2.70833 10.2083 2.66667 10.1111 2.66667 10C2.66667 9.88889 2.70833 9.79167 2.79167 9.70833L5.125 7.375C5.26389 7.23611 5.41667 7.20139 5.58333 7.27083C5.75 7.34028 5.83333 7.47222 5.83333 7.66667V12.3333C5.83333 12.5278 5.75 12.6597 5.58333 12.7292C5.41667 12.7986 5.26389 12.7639 5.125 12.625Z" fill="#656D77"/>
</g>
</svg>
