<svg width="24" height="24" viewBox="0 0 24 24" fill="none" xmlns="http://www.w3.org/2000/svg">
<path d="M10 19C9.71667 19 9.47917 18.9042 9.2875 18.7125C9.09583 18.5208 9 18.2833 9 18C9 17.7167 9.09583 17.4792 9.2875 17.2875C9.47917 17.0958 9.71667 17 10 17H20C20.2833 17 20.5208 17.0958 20.7125 17.2875C20.9042 17.4792 21 17.7167 21 18C21 18.2833 20.9042 18.5208 20.7125 18.7125C20.5208 18.9042 20.2833 19 20 19H10ZM10 13C9.71667 13 9.47917 12.9042 9.2875 12.7125C9.09583 12.5208 9 12.2833 9 12C9 11.7167 9.09583 11.4792 9.2875 11.2875C9.47917 11.0958 9.71667 11 10 11H20C20.2833 11 20.5208 11.0958 20.7125 11.2875C20.9042 11.4792 21 11.7167 21 12C21 12.2833 20.9042 12.5208 20.7125 12.7125C20.5208 12.9042 20.2833 13 20 13H10ZM10 7C9.71667 7 9.47917 6.90417 9.2875 6.7125C9.09583 6.52083 9 6.28333 9 6C9 5.71667 9.09583 5.47917 9.2875 5.2875C9.47917 5.09583 9.71667 5 10 5H20C20.2833 5 20.5208 5.09583 20.7125 5.2875C20.9042 5.47917 21 5.71667 21 6C21 6.28333 20.9042 6.52083 20.7125 6.7125C20.5208 6.90417 20.2833 7 20 7H10ZM5 20C4.45 20 3.97917 19.8042 3.5875 19.4125C3.19583 19.0208 3 18.55 3 18C3 17.45 3.19583 16.9792 3.5875 16.5875C3.97917 16.1958 4.45 16 5 16C5.55 16 6.02083 16.1958 6.4125 16.5875C6.80417 16.9792 7 17.45 7 18C7 18.55 6.80417 19.0208 6.4125 19.4125C6.02083 19.8042 5.55 20 5 20ZM5 14C4.45 14 3.97917 13.8042 3.5875 13.4125C3.19583 13.0208 3 12.55 3 12C3 11.45 3.19583 10.9792 3.5875 10.5875C3.97917 10.1958 4.45 10 5 10C5.55 10 6.02083 10.1958 6.4125 10.5875C6.80417 10.9792 7 11.45 7 12C7 12.55 6.80417 13.0208 6.4125 13.4125C6.02083 13.8042 5.55 14 5 14ZM5 8C4.45 8 3.97917 7.80417 3.5875 7.4125C3.19583 7.02083 3 6.55 3 6C3 5.45 3.19583 4.97917 3.5875 4.5875C3.97917 4.19583 4.45 4 5 4C5.55 4 6.02083 4.19583 6.4125 4.5875C6.80417 4.97917 7 5.45 7 6C7 6.55 6.80417 7.02083 6.4125 7.4125C6.02083 7.80417 5.55 8 5 8Z" fill="#656D77"/>
</svg>
