<svg width="20" height="20" viewBox="0 0 20 20" fill="none" xmlns="http://www.w3.org/2000/svg">
<g id="_Bulleted list">
<path id="Vector" d="M8.33333 15.834C8.09722 15.834 7.89931 15.7541 7.73958 15.5944C7.57986 15.4347 7.5 15.2368 7.5 15.0007C7.5 14.7645 7.57986 14.5666 7.73958 14.4069C7.89931 14.2472 8.09722 14.1673 8.33333 14.1673H16.6667C16.9028 14.1673 17.1007 14.2472 17.2604 14.4069C17.4201 14.5666 17.5 14.7645 17.5 15.0007C17.5 15.2368 17.4201 15.4347 17.2604 15.5944C17.1007 15.7541 16.9028 15.834 16.6667 15.834H8.33333ZM8.33333 10.834C8.09722 10.834 7.89931 10.7541 7.73958 10.5944C7.57986 10.4347 7.5 10.2368 7.5 10.0007C7.5 9.76454 7.57986 9.56662 7.73958 9.4069C7.89931 9.24718 8.09722 9.16732 8.33333 9.16732H16.6667C16.9028 9.16732 17.1007 9.24718 17.2604 9.4069C17.4201 9.56662 17.5 9.76454 17.5 10.0007C17.5 10.2368 17.4201 10.4347 17.2604 10.5944C17.1007 10.7541 16.9028 10.834 16.6667 10.834H8.33333ZM8.33333 5.83398C8.09722 5.83398 7.89931 5.75412 7.73958 5.5944C7.57986 5.43468 7.5 5.23676 7.5 5.00065C7.5 4.76454 7.57986 4.56662 7.73958 4.4069C7.89931 4.24718 8.09722 4.16732 8.33333 4.16732H16.6667C16.9028 4.16732 17.1007 4.24718 17.2604 4.4069C17.4201 4.56662 17.5 4.76454 17.5 5.00065C17.5 5.23676 17.4201 5.43468 17.2604 5.5944C17.1007 5.75412 16.9028 5.83398 16.6667 5.83398H8.33333ZM4.16667 16.6673C3.70833 16.6673 3.31597 16.5041 2.98958 16.1777C2.66319 15.8513 2.5 15.459 2.5 15.0007C2.5 14.5423 2.66319 14.15 2.98958 13.8236C3.31597 13.4972 3.70833 13.334 4.16667 13.334C4.625 13.334 5.01736 13.4972 5.34375 13.8236C5.67014 14.15 5.83333 14.5423 5.83333 15.0007C5.83333 15.459 5.67014 15.8513 5.34375 16.1777C5.01736 16.5041 4.625 16.6673 4.16667 16.6673ZM4.16667 11.6673C3.70833 11.6673 3.31597 11.5041 2.98958 11.1777C2.66319 10.8513 2.5 10.459 2.5 10.0007C2.5 9.54232 2.66319 9.14996 2.98958 8.82357C3.31597 8.49718 3.70833 8.33398 4.16667 8.33398C4.625 8.33398 5.01736 8.49718 5.34375 8.82357C5.67014 9.14996 5.83333 9.54232 5.83333 10.0007C5.83333 10.459 5.67014 10.8513 5.34375 11.1777C5.01736 11.5041 4.625 11.6673 4.16667 11.6673ZM4.16667 6.66732C3.70833 6.66732 3.31597 6.50412 2.98958 6.17773C2.66319 5.85135 2.5 5.45898 2.5 5.00065C2.5 4.54232 2.66319 4.14996 2.98958 3.82357C3.31597 3.49718 3.70833 3.33398 4.16667 3.33398C4.625 3.33398 5.01736 3.49718 5.34375 3.82357C5.67014 4.14996 5.83333 4.54232 5.83333 5.00065C5.83333 5.45898 5.67014 5.85135 5.34375 6.17773C5.01736 6.50412 4.625 6.66732 4.16667 6.66732Z" fill="#656D77"/>
</g>
</svg>
