<svg width="24" height="24" viewBox="0 0 24 24" fill="none" xmlns="http://www.w3.org/2000/svg">
<g clip-path="url(#clip0_2320_116500)">
<path d="M3 20.6667C3 21.4 3.6 22 4.33333 22H20.3333C21.0667 22 21.6667 21.4 21.6667 20.6667C21.6667 19.9333 21.0667 19.3333 20.3333 19.3333H4.33333C3.6 19.3333 3 19.9333 3 20.6667ZM9 13.7333H15.6667L16.5467 15.8667C16.7467 16.3467 17.2133 16.6667 17.7333 16.6667C18.6533 16.6667 19.2667 15.72 18.9067 14.88L13.7333 2.92C13.4933 2.36 12.9467 2 12.3333 2C11.72 2 11.1733 2.36 10.9333 2.92L5.76 14.88C5.4 15.72 6.02667 16.6667 6.94667 16.6667C7.46667 16.6667 7.93333 16.3467 8.13333 15.8667L9 13.7333ZM12.3333 4.64L14.8267 11.3333H9.84L12.3333 4.64Z" fill="#1B1D22"/>
</g>
<defs>
<clipPath id="clip0_2320_116500">
<rect width="24" height="24" fill="white"/>
</clipPath>
</defs>
</svg>
