<svg width="16" height="16" viewBox="0 0 16 16" fill="none" xmlns="http://www.w3.org/2000/svg">
<path d="M12.8666 5.94995L10.0333 3.14997L10.9666 2.21664C11.2222 1.96109 11.536 1.83331 11.9083 1.83331C12.2805 1.83331 12.5944 1.96109 12.8499 2.21664L13.7832 3.14997C14.0388 3.40552 14.1721 3.71385 14.1832 4.07496C14.1944 4.43607 14.0721 4.7444 13.8166 4.99996L12.8666 5.94995ZM2.66666 13.9999C2.47777 13.9999 2.31944 13.936 2.19167 13.8082C2.06389 13.6804 2 13.5221 2 13.3332V11.4499C2 11.361 2.01667 11.2749 2.05 11.1916C2.08333 11.1082 2.13333 11.0332 2.2 10.9666L9.06661 4.09996L11.8999 6.93327L5.03331 13.7999C4.96664 13.8666 4.89164 13.9166 4.80831 13.9499C4.72498 13.9832 4.63887 13.9999 4.54998 13.9999H2.66666Z" fill="#1B1D22"/>
</svg>
