<svg width="24" height="24" viewBox="0 0 24 24" fill="none" xmlns="http://www.w3.org/2000/svg">
<path d="M9.0002 12.0312C9.0002 11.7479 9.09603 11.5104 9.28769 11.3188C9.47936 11.1271 9.71686 11.0312 10.0002 11.0312H17.1502L15.2752 9.15625C15.0752 8.95625 14.9752 8.72292 14.9752 8.45625C14.9752 8.18958 15.0835 7.94792 15.3002 7.73125C15.5002 7.53125 15.7377 7.43542 16.0127 7.44375C16.2877 7.45208 16.5169 7.54792 16.7002 7.73125L20.3002 11.3313C20.4002 11.4313 20.471 11.5396 20.5127 11.6562C20.5544 11.7729 20.5752 11.8979 20.5752 12.0312C20.5752 12.1646 20.5544 12.2896 20.5127 12.4062C20.471 12.5229 20.4002 12.6312 20.3002 12.7312L16.7002 16.3313C16.5002 16.5313 16.2627 16.6271 15.9877 16.6188C15.7127 16.6104 15.4835 16.5146 15.3002 16.3313C15.1002 16.1313 14.996 15.8938 14.9877 15.6188C14.9794 15.3438 15.0752 15.1063 15.2752 14.9062L17.1502 13.0312H10.0002C9.71686 13.0312 9.47936 12.9354 9.28769 12.7438C9.09603 12.5521 9.0002 12.3146 9.0002 12.0312ZM3.00019 5.03125C3.00019 4.48125 3.19603 4.01042 3.5877 3.61875C3.97936 3.22708 4.4502 3.03125 5.0002 3.03125H11.0002C11.2835 3.03125 11.521 3.12708 11.7127 3.31875C11.9044 3.51042 12.0002 3.74792 12.0002 4.03125C12.0002 4.31458 11.9044 4.55208 11.7127 4.74375C11.521 4.93542 11.2835 5.03125 11.0002 5.03125L5.0002 5.03125L5.0002 19.0312H11.0002C11.2835 19.0312 11.521 19.1271 11.7127 19.3188C11.9044 19.5104 12.0002 19.7479 12.0002 20.0312C12.0002 20.3146 11.9044 20.5521 11.7127 20.7438C11.521 20.9354 11.2835 21.0312 11.0002 21.0312H5.0002C4.4502 21.0312 3.97936 20.8354 3.5877 20.4438C3.19603 20.0521 3.00019 19.5813 3.00019 19.0312V5.03125Z" fill="#1B1D22"/>
</svg>
