<svg width="24" height="24" viewBox="0 0 24 24" fill="none" xmlns="http://www.w3.org/2000/svg">
<g id="mic_FILL1_wght400_GRAD0_opsz20 1">
<path id="Vector" d="M12.0294 14.15C11.1764 14.15 10.4458 13.8458 9.83746 13.2375C9.22913 12.6292 8.92496 11.9 8.92496 11.05V5.075C8.92496 4.22083 9.22913 3.49479 9.83746 2.89688C10.4458 2.29896 11.1764 2 12.0294 2C12.8823 2 13.6073 2.29896 14.2044 2.89688C14.8014 3.49479 15.1 4.22083 15.1 5.075V11.05C15.1 11.9 14.8014 12.6292 14.2044 13.2375C13.6073 13.8458 12.8823 14.15 12.0294 14.15ZM12.025 21C11.7416 21 11.4958 20.8958 11.2875 20.6875C11.0791 20.4792 10.975 20.2333 10.975 19.95V18.0047C9.44163 17.8016 8.14163 17.1625 7.07496 16.0875C6.0083 15.0125 5.34996 13.725 5.09996 12.225C5.04996 11.9153 5.13136 11.6421 5.34416 11.4052C5.55698 11.1684 5.84225 11.05 6.19996 11.05C6.4333 11.05 6.64163 11.1333 6.82496 11.3C7.0083 11.4667 7.12496 11.6833 7.17496 11.95C7.38833 13.0953 7.94636 14.0525 8.84906 14.8215C9.75178 15.5905 10.8104 15.975 12.025 15.975C13.2332 15.975 14.2864 15.5905 15.1845 14.8215C16.0825 14.0525 16.6377 13.0953 16.85 11.95C16.9 11.6833 17.0166 11.4667 17.2 11.3C17.3833 11.1333 17.6003 11.05 17.8509 11.05C18.191 11.05 18.4675 11.1684 18.6805 11.4052C18.8935 11.6421 18.975 11.9153 18.925 12.225C18.6949 13.7279 18.0457 15.0162 16.9774 16.0897C15.9091 17.1632 14.6083 17.8016 13.075 18.0047V19.95C13.075 20.2333 12.9708 20.4792 12.7625 20.6875C12.5541 20.8958 12.3083 21 12.025 21Z" fill="#1B1D22"/>
</g>
</svg>
