<svg width="20" height="20" viewBox="0 0 20 20" fill="none" xmlns="http://www.w3.org/2000/svg">
<g id="_Inline code">
<g id="Union">
<path d="M12.4647 4.68434C12.597 4.24351 12.3468 3.77894 11.906 3.64669C11.4652 3.51444 11.0006 3.7646 10.8684 4.20542L7.53503 15.3165C7.40278 15.7574 7.65293 16.2219 8.09376 16.3542C8.53459 16.4864 8.99916 16.2363 9.13141 15.7954L12.4647 4.68434Z" fill="#656D77"/>
<path d="M4.97785 6.02699C4.62429 5.73235 4.09882 5.78012 3.80418 6.13368L1.0264 9.46702C0.768869 9.77606 0.768869 10.225 1.0264 10.534L3.80418 13.8673C4.09882 14.2209 4.62429 14.2687 4.97785 13.974C5.33141 13.6794 5.37918 13.1539 5.08455 12.8004L2.75134 10.0005L5.08455 7.20066C5.37918 6.84709 5.33141 6.32162 4.97785 6.02699Z" fill="#656D77"/>
<path d="M15.022 6.02699C15.3755 5.73235 15.901 5.78012 16.1957 6.13368L18.9734 9.46702C19.231 9.77606 19.231 10.225 18.9734 10.534L16.1957 13.8673C15.901 14.2209 15.3755 14.2687 15.022 13.974C14.6684 13.6794 14.6206 13.1539 14.9153 12.8004L17.2485 10.0005L14.9153 7.20066C14.6206 6.84709 14.6684 6.32162 15.022 6.02699Z" fill="#656D77"/>
</g>
</g>
</svg>
