<svg width="24" height="24" viewBox="0 0 24 24" fill="none" xmlns="http://www.w3.org/2000/svg">
<path d="M14.9578 5.62066C15.1165 5.09167 14.8163 4.53419 14.2873 4.37549C13.7583 4.21679 13.2008 4.51698 13.0421 5.04597L9.04213 18.3793C8.88344 18.9083 9.18362 19.4658 9.71261 19.6245C10.2416 19.7832 10.7991 19.483 10.9578 18.954L14.9578 5.62066Z" fill="#656D77"/>
<path d="M5.97352 7.23184C5.54924 6.87828 4.91868 6.9356 4.56511 7.35988L1.23178 11.3599C0.92274 11.7307 0.92274 12.2694 1.23178 12.6402L4.56511 16.6402C4.91868 17.0645 5.54924 17.1218 5.97352 16.7683C6.3978 16.4147 6.45512 15.7842 6.10155 15.3599L3.30171 12.0001L6.10155 8.64025C6.45512 8.21597 6.3978 7.58541 5.97352 7.23184Z" fill="#656D77"/>
<path d="M18.0265 7.23184C18.4508 6.87828 19.0813 6.9356 19.4349 7.35988L22.7682 11.3599C23.0773 11.7307 23.0773 12.2694 22.7682 12.6402L19.4349 16.6402C19.0813 17.0645 18.4508 17.1218 18.0265 16.7683C17.6022 16.4147 17.5449 15.7842 17.8984 15.3599L20.6983 12.0001L17.8984 8.64025C17.5449 8.21597 17.6022 7.58541 18.0265 7.23184Z" fill="#656D77"/>
</svg>
