<svg width="24" height="24" viewBox="0 0 24 24" fill="none" xmlns="http://www.w3.org/2000/svg">
<g id="mic_FILL0_wght400_GRAD0_opsz24 1">
<path id="Vector" d="M12.0001 14C11.1667 14 10.4584 13.7083 9.87506 13.125C9.29173 12.5417 9.00006 11.8333 9.00006 11V5C9.00006 4.16667 9.29173 3.45833 9.87506 2.875C10.4584 2.29167 11.1667 2 12.0001 2C12.8334 2 13.5417 2.29167 14.1251 2.875C14.7084 3.45833 15.0001 4.16667 15.0001 5V11C15.0001 11.8333 14.7084 12.5417 14.1251 13.125C13.5417 13.7083 12.8334 14 12.0001 14ZM12.0001 21C11.7167 21 11.4792 20.9042 11.2876 20.7125C11.0959 20.5208 11.0001 20.2833 11.0001 20V17.925C9.45006 17.7083 8.13339 17.0583 7.05006 15.975C5.96673 14.8917 5.30839 13.5917 5.07506 12.075C5.02506 11.7917 5.10006 11.5417 5.30006 11.325C5.50006 11.1083 5.76673 11 6.10006 11C6.33339 11 6.54173 11.0875 6.72506 11.2625C6.90839 11.4375 7.02506 11.65 7.07506 11.9C7.29173 13.0667 7.85839 14.0417 8.77506 14.825C9.69173 15.6083 10.7667 16 12.0001 16C13.2334 16 14.3084 15.6083 15.2251 14.825C16.1417 14.0417 16.7084 13.0667 16.9251 11.9C16.9751 11.65 17.0959 11.4375 17.2876 11.2625C17.4792 11.0875 17.6917 11 17.9251 11C18.2417 11 18.5001 11.1083 18.7001 11.325C18.9001 11.5417 18.9751 11.7917 18.9251 12.075C18.6917 13.5917 18.0334 14.8917 16.9501 15.975C15.8667 17.0583 14.5501 17.7083 13.0001 17.925V20C13.0001 20.2833 12.9042 20.5208 12.7126 20.7125C12.5209 20.9042 12.2834 21 12.0001 21ZM12.0001 12C12.2834 12 12.5209 11.9042 12.7126 11.7125C12.9042 11.5208 13.0001 11.2833 13.0001 11V5C13.0001 4.71667 12.9042 4.47917 12.7126 4.2875C12.5209 4.09583 12.2834 4 12.0001 4C11.7167 4 11.4792 4.09583 11.2876 4.2875C11.0959 4.47917 11.0001 4.71667 11.0001 5V11C11.0001 11.2833 11.0959 11.5208 11.2876 11.7125C11.4792 11.9042 11.7167 12 12.0001 12Z" fill="#656D77"/>
</g>
</svg>
