<svg width="20" height="20" viewBox="0 0 20 20" fill="none" xmlns="http://www.w3.org/2000/svg">
<g id="add_comment_FILL0_wght500_GRAD0_opsz20 1">
<path id="Vector" d="M9.21011 9.28985V11.25C9.21011 11.4738 9.28538 11.6614 9.43592 11.8128C9.58648 11.9642 9.77302 12.0398 9.99557 12.0398C10.2181 12.0398 10.4061 11.9642 10.5596 11.8128C10.7131 11.6614 10.7898 11.4738 10.7898 11.25V9.28985H12.75C12.9738 9.28985 13.1613 9.21458 13.3127 9.06403C13.4641 8.91348 13.5398 8.72693 13.5398 8.50439C13.5398 8.28183 13.4641 8.09382 13.3127 7.94035C13.1613 7.78687 12.9738 7.71014 12.75 7.71014H10.7898V5.74999C10.7898 5.5262 10.7145 5.33861 10.564 5.18722C10.4134 5.03583 10.2269 4.96014 10.0044 4.96014C9.7818 4.96014 9.59379 5.03583 9.44032 5.18722C9.28684 5.33861 9.21011 5.5262 9.21011 5.74999V7.71014H7.24996C7.02617 7.71014 6.83858 7.78541 6.68719 7.93595C6.5358 8.08651 6.46011 8.27306 6.46011 8.4956C6.46011 8.71815 6.5358 8.90617 6.68719 9.05964C6.83858 9.21311 7.02617 9.28985 7.24996 9.28985H9.21011ZM4.83057 15.1694L3.30313 16.6968C3.02885 16.9711 2.71486 17.0335 2.36115 16.8839C2.00743 16.7344 1.83057 16.4674 1.83057 16.0829V3.55978C1.83057 3.08085 1.99903 2.67292 2.33596 2.33599C2.67289 1.99906 3.08082 1.8306 3.55975 1.8306H16.4402C16.9191 1.8306 17.327 1.99906 17.664 2.33599C18.0009 2.67292 18.1694 3.08085 18.1694 3.55978V13.4402C18.1694 13.9191 18.0009 14.3271 17.664 14.664C17.327 15.0009 16.9191 15.1694 16.4402 15.1694H4.83057ZM3.55975 13.4402H16.4402V3.55978H3.55975V13.4402Z" fill="#656D77"/>
</g>
</svg>
