<svg width="16" height="16" viewBox="0 0 16 16" fill="none" xmlns="http://www.w3.org/2000/svg">
<path d="M15.404 8.96458L1.56331 15.8816C0.630627 16.3478 -0.33971 15.3477 0.116135 14.4353C0.116135 14.4353 1.83155 10.9711 2.30339 10.0637C2.77523 9.15633 3.31538 8.99926 8.33135 8.35098C8.51695 8.32697 8.6689 8.1869 8.6689 7.99982C8.6689 7.81307 8.51695 7.67301 8.33135 7.649C3.31538 7.00071 2.77523 6.84364 2.30339 5.93624C1.83155 5.02918 0.116135 1.56465 0.116135 1.56465C-0.33971 0.65258 0.630627 -0.347862 1.56331 0.118344L15.404 7.03573C16.1987 7.43257 16.1987 8.5674 15.404 8.96458Z" fill="white"/>
</svg>
