<svg width="42" height="42" viewBox="0 0 42 42" fill="none" xmlns="http://www.w3.org/2000/svg">
<path d="M34.65 38.4129L21.6125 25.3754C20.7667 27.3879 19.476 28.9118 17.7406 29.9473C16.0052 30.9827 14.175 31.5004 12.25 31.5004C9.33333 31.5004 6.85417 30.4796 4.8125 28.4379C2.77083 26.3962 1.75 23.9171 1.75 21.0004C1.75 19.0754 2.24583 17.2598 3.2375 15.5535C4.22917 13.8473 5.73125 12.4983 7.74375 11.5066L3.5875 7.35039C3.325 7.08789 3.19375 6.78164 3.19375 6.43164C3.19375 6.08164 3.325 5.77539 3.5875 5.51289C3.85 5.25039 4.16354 5.11914 4.52813 5.11914C4.89271 5.11914 5.20625 5.25039 5.46875 5.51289L36.5313 36.5316C36.7938 36.7941 36.9177 37.1077 36.9031 37.4723C36.8885 37.8368 36.75 38.1504 36.4875 38.4129C36.225 38.6754 35.9188 38.8066 35.5688 38.8066C35.2188 38.8066 34.9125 38.6754 34.65 38.4129ZM39.725 20.9129C39.725 21.0879 39.6958 21.2483 39.6375 21.3941C39.5792 21.54 39.4771 21.6858 39.3313 21.8316L34.7813 26.3816C34.6354 26.5275 34.4969 26.6296 34.3656 26.6879C34.2344 26.7462 34.0667 26.7754 33.8625 26.7754C33.6583 26.7754 33.4906 26.7462 33.3594 26.6879C33.2281 26.6296 33.0896 26.5275 32.9438 26.3816L30.1875 23.6254L28.7438 25.0691L21.4375 17.7191H36.5313C36.7063 17.7191 36.8667 17.7483 37.0125 17.8066C37.1583 17.865 37.3042 17.9671 37.45 18.1129L39.3313 19.9941C39.4771 20.14 39.5792 20.2858 39.6375 20.4316C39.6958 20.5775 39.725 20.7379 39.725 20.9129ZM12.25 26.6441C13.825 26.6441 15.1156 26.1337 16.1219 25.1129C17.1281 24.0921 17.7042 22.94 17.85 21.6566L16.8875 20.6723C16.2458 20.016 15.5313 19.3014 14.7438 18.5285C13.9563 17.7556 13.2417 17.041 12.6 16.3848L11.6375 15.4004C10.3542 15.5171 9.19479 16.0858 8.15938 17.1066C7.12396 18.1275 6.60625 19.4254 6.60625 21.0004C6.60625 22.5754 7.15313 23.9098 8.24688 25.0035C9.34063 26.0973 10.675 26.6441 12.25 26.6441Z" fill="#1B1D22"/>
</svg>
