<svg width="30" height="30" viewBox="0 0 30 30" fill="none" xmlns="http://www.w3.org/2000/svg">
<path id="Subtract" fill-rule="evenodd" clip-rule="evenodd" d="M4.3934 4.3934C-1.46447 10.2513 -1.46447 19.7487 4.3934 25.6066C10.2513 31.4645 19.7487 31.4645 25.6066 25.6066C31.4645 19.7487 31.4645 10.2513 25.6066 4.3934C19.7487 -1.46447 10.2513 -1.46447 4.3934 4.3934ZM11.4645 19.9497L15 16.4142L18.5355 19.9497C18.7359 20.1501 18.9716 20.2503 19.2426 20.2503C19.5137 20.2503 19.7494 20.1501 19.9497 19.9497C20.1501 19.7494 20.2503 19.5137 20.2503 19.2426C20.2503 18.9716 20.1501 18.7359 19.9497 18.5355L16.4142 15L19.9497 11.4645C20.1501 11.2641 20.2503 11.0284 20.2503 10.7574C20.2503 10.4863 20.1501 10.2506 19.9497 10.0503C19.7494 9.84991 19.5137 9.74973 19.2426 9.74973C18.9716 9.74973 18.7359 9.84991 18.5355 10.0503L15 13.5858L11.4645 10.0503C11.2641 9.84991 11.0284 9.74973 10.7574 9.74973C10.4863 9.74973 10.2506 9.84991 10.0503 10.0503C9.84991 10.2506 9.74973 10.4863 9.74973 10.7574C9.74973 11.0284 9.84991 11.2641 10.0503 11.4645L13.5858 15L10.0503 18.5355C9.84991 18.7359 9.74973 18.9716 9.74973 19.2426C9.74973 19.5137 9.84991 19.7494 10.0503 19.9497C10.2506 20.1501 10.4863 20.2503 10.7574 20.2503C11.0284 20.2503 11.2641 20.1501 11.4645 19.9497Z" fill="#EBEEF2"/>
</svg>
